<svg width="40" height="40" viewBox="0 0 40 40" fill="none" xmlns="http://www.w3.org/2000/svg">
<g filter="url(#filter0_d_71_719)">
<path d="M18.0033 10.3084C13.7468 10.3084 10.3134 13.7425 10.3134 18C10.3134 22.2575 13.7468 25.6916 18.0033 25.6916C22.2599 25.6916 25.6933 22.2575 25.6933 18C25.6933 13.7425 22.2599 10.3084 18.0033 10.3084ZM18.0033 23.0006C15.2527 23.0006 13.0039 20.758 13.0039 18C13.0039 15.242 15.246 12.9994 18.0033 12.9994C20.7607 12.9994 23.0028 15.242 23.0028 18C23.0028 20.758 20.754 23.0006 18.0033 23.0006ZM27.8015 9.99375C27.8015 10.9912 26.9983 11.7878 26.0078 11.7878C25.0106 11.7878 24.2142 10.9845 24.2142 9.99375C24.2142 9.00301 25.0173 8.19971 26.0078 8.19971C26.9983 8.19971 27.8015 9.00301 27.8015 9.99375ZM32.8946 11.8146C32.7808 9.41136 32.232 7.28261 30.4718 5.52873C28.7184 3.77485 26.5901 3.22593 24.1874 3.10543C21.7111 2.96486 14.2889 2.96486 11.8126 3.10543C9.41662 3.21923 7.28834 3.76816 5.52817 5.52203C3.76799 7.27591 3.22588 9.40466 3.10541 11.8079C2.96486 14.2847 2.96486 21.7086 3.10541 24.1854C3.21919 26.5886 3.76799 28.7174 5.52817 30.4713C7.28834 32.2251 9.40993 32.7741 11.8126 32.8946C14.2889 33.0351 21.7111 33.0351 24.1874 32.8946C26.5901 32.7808 28.7184 32.2318 30.4718 30.4713C32.2253 28.7174 32.7741 26.5886 32.8946 24.1854C33.0351 21.7086 33.0351 14.2914 32.8946 11.8146ZM29.6955 26.843C29.1735 28.1551 28.1629 29.1659 26.8444 29.6947C24.8701 30.478 20.1852 30.2972 18.0033 30.2972C15.8215 30.2972 11.1299 30.4713 9.1623 29.6947C7.85053 29.1726 6.83993 28.1618 6.31121 26.843C5.52817 24.8682 5.70887 20.1823 5.70887 18C5.70887 15.8177 5.53486 11.1251 6.31121 9.15698C6.83324 7.84492 7.84384 6.8341 9.1623 6.30525C11.1366 5.52203 15.8215 5.70278 18.0033 5.70278C20.1852 5.70278 24.8767 5.52873 26.8444 6.30525C28.1562 6.8274 29.1668 7.83822 29.6955 9.15698C30.4785 11.1318 30.2978 15.8177 30.2978 18C30.2978 20.1823 30.4785 24.8749 29.6955 26.843Z" fill="url(#paint0_linear_71_719)"/>
</g>
<defs>
<filter id="filter0_d_71_719" x="0" y="0" width="40" height="40" filterUnits="userSpaceOnUse" color-interpolation-filters="sRGB">
<feFlood flood-opacity="0" result="BackgroundImageFix"/>
<feColorMatrix in="SourceAlpha" type="matrix" values="0 0 0 0 0 0 0 0 0 0 0 0 0 0 0 0 0 0 127 0" result="hardAlpha"/>
<feOffset dx="2" dy="2"/>
<feGaussianBlur stdDeviation="2.5"/>
<feComposite in2="hardAlpha" operator="out"/>
<feColorMatrix type="matrix" values="0 0 0 0 0.286275 0 0 0 0 0.376471 0 0 0 0 0.447059 0 0 0 0.6 0"/>
<feBlend mode="normal" in2="BackgroundImageFix" result="effect1_dropShadow_71_719"/>
<feBlend mode="normal" in="SourceGraphic" in2="effect1_dropShadow_71_719" result="shape"/>
</filter>
<linearGradient id="paint0_linear_71_719" x1="36.1988" y1="18" x2="-1.08501" y2="18" gradientUnits="userSpaceOnUse">
<stop offset="0.0889102" stop-color="#496072"/>
<stop offset="1" stop-color="#567D9C"/>
</linearGradient>
</defs>
</svg>
