<svg width="50" height="40" viewBox="0 0 50 40" fill="none" xmlns="http://www.w3.org/2000/svg">
<g filter="url(#filter0_d_45_127)">
<path d="M6.75 3C4.67969 3 3 4.67969 3 6.75C3 7.92969 3.55469 9.03906 4.5 9.75L21.5 22.5C22.3906 23.1641 23.6094 23.1641 24.5 22.5L41.5 9.75C42.4453 9.03906 43 7.92969 43 6.75C43 4.67969 41.3203 3 39.25 3H6.75ZM3 11.75V28C3 30.7578 5.24219 33 8 33H38C40.7578 33 43 30.7578 43 28V11.75L26 24.5C24.2187 25.8359 21.7813 25.8359 20 24.5L3 11.75Z" fill="#C5D8E6"/>
</g>
<defs>
<filter id="filter0_d_45_127" x="0" y="0" width="50" height="40" filterUnits="userSpaceOnUse" color-interpolation-filters="sRGB">
<feFlood flood-opacity="0" result="BackgroundImageFix"/>
<feColorMatrix in="SourceAlpha" type="matrix" values="0 0 0 0 0 0 0 0 0 0 0 0 0 0 0 0 0 0 127 0" result="hardAlpha"/>
<feOffset dx="2" dy="2"/>
<feGaussianBlur stdDeviation="2.5"/>
<feComposite in2="hardAlpha" operator="out"/>
<feColorMatrix type="matrix" values="0 0 0 0 0.286275 0 0 0 0 0.376471 0 0 0 0 0.447059 0 0 0 0.6 0"/>
<feBlend mode="normal" in2="BackgroundImageFix" result="effect1_dropShadow_45_127"/>
<feBlend mode="normal" in="SourceGraphic" in2="effect1_dropShadow_45_127" result="shape"/>
</filter>
</defs>
</svg>
