<svg width="40" height="40" viewBox="0 0 40 40" fill="none" xmlns="http://www.w3.org/2000/svg">
<g filter="url(#filter0_d_71_721)">
<path d="M28.5067 7.35937C25.7009 4.54687 21.9643 3 17.9933 3C9.79687 3 3.12723 9.66964 3.12723 17.8661C3.12723 20.4844 3.81027 23.0424 5.10937 25.2991L3 33L10.8817 30.9308C13.0513 32.1161 15.4955 32.7388 17.9866 32.7388H17.9933C26.183 32.7388 33 26.0692 33 17.8728C33 13.9018 31.3125 10.1719 28.5067 7.35937ZM17.9933 30.2344C15.7701 30.2344 13.5937 29.6384 11.6987 28.5134L11.25 28.2455L6.57589 29.471L7.82143 24.9107L7.52679 24.442C6.28795 22.4732 5.63839 20.2031 5.63839 17.8661C5.63839 11.0558 11.183 5.51116 18 5.51116C21.3013 5.51116 24.4018 6.79687 26.7321 9.13393C29.0625 11.471 30.4955 14.5714 30.4888 17.8728C30.4888 24.6897 24.8036 30.2344 17.9933 30.2344ZM24.7701 20.9799C24.4018 20.7924 22.5737 19.8951 22.2321 19.7746C21.8906 19.6473 21.6429 19.5871 21.3951 19.9621C21.1473 20.3371 20.4375 21.1674 20.2165 21.4219C20.0022 21.6696 19.7812 21.7031 19.4129 21.5156C17.2299 20.4241 15.7969 19.567 14.3571 17.096C13.9754 16.4397 14.7388 16.4866 15.4487 15.067C15.5692 14.8192 15.5089 14.6049 15.4152 14.4174C15.3214 14.2299 14.5781 12.4018 14.2701 11.6585C13.9687 10.9353 13.6607 11.0357 13.433 11.0223C13.2187 11.0089 12.971 11.0089 12.7232 11.0089C12.4754 11.0089 12.0737 11.1027 11.7321 11.471C11.3906 11.846 10.433 12.7433 10.433 14.5714C10.433 16.3996 11.7656 18.1674 11.9464 18.4152C12.1339 18.6629 14.5647 22.4129 18.2946 24.0268C20.6518 25.0446 21.5759 25.1317 22.7545 24.9576C23.471 24.8504 24.9509 24.0603 25.2589 23.1897C25.567 22.3192 25.567 21.5759 25.4732 21.4219C25.3862 21.2545 25.1384 21.1607 24.7701 20.9799Z" fill="url(#paint0_linear_71_721)"/>
</g>
<defs>
<filter id="filter0_d_71_721" x="0" y="0" width="40" height="40" filterUnits="userSpaceOnUse" color-interpolation-filters="sRGB">
<feFlood flood-opacity="0" result="BackgroundImageFix"/>
<feColorMatrix in="SourceAlpha" type="matrix" values="0 0 0 0 0 0 0 0 0 0 0 0 0 0 0 0 0 0 127 0" result="hardAlpha"/>
<feOffset dx="2" dy="2"/>
<feGaussianBlur stdDeviation="2.5"/>
<feComposite in2="hardAlpha" operator="out"/>
<feColorMatrix type="matrix" values="0 0 0 0 0.286275 0 0 0 0 0.376471 0 0 0 0 0.447059 0 0 0 0.6 0"/>
<feBlend mode="normal" in2="BackgroundImageFix" result="effect1_dropShadow_71_721"/>
<feBlend mode="normal" in="SourceGraphic" in2="effect1_dropShadow_71_721" result="shape"/>
</filter>
<linearGradient id="paint0_linear_71_721" x1="36.1988" y1="18" x2="-1.08501" y2="18" gradientUnits="userSpaceOnUse">
<stop offset="0.0889102" stop-color="#496072"/>
<stop offset="1" stop-color="#567D9C"/>
</linearGradient>
</defs>
</svg>
