<?xml version="1.0" standalone="no"?>
<!DOCTYPE svg PUBLIC "-//W3C//DTD SVG 20010904//EN"
 "http://www.w3.org/TR/2001/REC-SVG-20010904/DTD/svg10.dtd">
<svg version="1.0" xmlns="http://www.w3.org/2000/svg"
 width="1104.000000pt" height="1104.000000pt" viewBox="0 0 1104.000000 1104.000000"
 preserveAspectRatio="xMidYMid meet">
<metadata>
Created by potrace 1.14, written by Peter Selinger 2001-2017
</metadata>
<g transform="translate(0.000000,1104.000000) scale(0.100000,-0.100000)"
fill="#000000" stroke="none">
<path d="M5548 9356 c-1 -2 -75 -6 -163 -10 -88 -3 -176 -8 -195 -10 -19 -3
-62 -7 -96 -10 -34 -3 -72 -7 -85 -10 -13 -3 -36 -8 -52 -10 -256 -43 -519
-118 -793 -227 -140 -55 -332 -143 -386 -176 -21 -13 -38 -21 -38 -18 0 3 -18
-6 -40 -20 -22 -14 -44 -25 -49 -25 -5 0 -11 -3 -13 -7 -1 -5 -19 -17 -38 -27
-19 -11 -58 -34 -86 -53 -28 -18 -56 -33 -61 -33 -6 0 -13 -7 -17 -15 -3 -8
-10 -15 -16 -15 -8 0 -109 -70 -175 -122 -212 -166 -415 -359 -551 -524 -21
-26 -51 -61 -65 -78 -83 -100 -219 -298 -308 -448 -28 -48 -51 -89 -51 -91 0
-3 -16 -33 -34 -66 -19 -34 -33 -61 -30 -61 3 0 -3 -12 -13 -27 -10 -16 -34
-64 -52 -108 -18 -44 -39 -93 -46 -110 -7 -16 -20 -52 -30 -80 -9 -27 -21 -57
-25 -66 -11 -21 -34 -102 -32 -111 1 -5 -2 -8 -6 -8 -4 0 -8 -10 -9 -22 -1
-12 -7 -33 -12 -47 -12 -31 -61 -223 -68 -266 -2 -16 -8 -46 -13 -65 -5 -19
-12 -55 -15 -80 -3 -25 -8 -63 -11 -85 -6 -40 -9 -64 -18 -145 -17 -137 -24
-509 -11 -530 4 -6 1 -10 -5 -10 -6 0 -8 -5 -4 -12 5 -7 9 -33 10 -58 3 -48
12 -152 19 -210 20 -176 21 -181 30 -230 4 -19 9 -46 12 -60 2 -13 11 -56 19
-95 9 -38 18 -81 20 -94 3 -14 8 -29 12 -35 3 -6 8 -20 9 -31 2 -10 13 -49 24
-85 11 -36 22 -72 24 -80 2 -8 7 -25 10 -36 4 -12 2 -25 -4 -28 -15 -9 -203
-15 -671 -21 -212 -2 -398 -7 -415 -10 -39 -8 -62 -35 -40 -48 27 -15 56 -18
270 -25 242 -8 7740 -9 8523 -1 327 4 527 10 533 16 16 16 -22 53 -61 59 -68
9 -199 14 -523 18 -181 3 -331 7 -333 9 -3 3 -21 1 -40 -3 -18 -4 -34 -5 -34
-1 0 3 -36 5 -80 4 -77 -1 -80 0 -80 21 0 13 3 26 7 30 4 3 8 12 9 19 1 7 13
48 27 92 44 141 77 274 92 370 3 22 10 67 15 100 5 33 12 85 15 115 3 30 8 66
10 80 22 137 22 708 0 820 -3 14 -7 50 -10 80 -3 30 -11 80 -16 110 -6 30 -12
66 -14 80 -6 43 -18 94 -49 221 -3 9 -14 49 -26 90 -12 41 -23 79 -24 84 -1 6
-4 15 -7 20 -4 6 -14 35 -24 65 -19 61 -86 233 -115 295 -54 119 -110 230
-157 312 -29 51 -53 97 -53 103 0 5 -4 10 -10 10 -5 0 -10 4 -10 9 0 5 -20 40
-45 78 -25 37 -51 76 -58 87 -6 10 -17 24 -22 30 -6 6 -22 27 -35 46 -102 147
-342 413 -480 530 -14 12 -38 33 -54 47 -16 14 -72 59 -125 100 -53 41 -104
81 -113 88 -30 24 -257 175 -264 175 -3 0 -18 8 -32 19 -79 56 -365 199 -522
261 -30 12 -64 26 -75 30 -67 27 -135 52 -137 51 -2 -1 -30 8 -63 19 -33 12
-67 23 -75 25 -8 2 -55 15 -105 28 -49 14 -103 27 -120 31 -16 3 -52 11 -80
17 -71 16 -114 23 -190 34 -27 3 -61 8 -75 11 -14 2 -45 6 -70 9 -25 3 -65 7
-90 10 -25 3 -108 7 -185 10 -77 4 -145 8 -152 10 -6 2 -13 2 -15 1z m297
-110 c17 -2 55 -7 85 -10 124 -14 188 -23 230 -31 14 -3 39 -8 55 -10 91 -16
193 -39 295 -66 63 -17 122 -33 130 -34 8 -2 16 -4 18 -5 1 -2 5 -3 10 -4 44
-10 291 -103 392 -148 97 -43 286 -140 304 -156 10 -9 19 -15 20 -12 1 3 46
-23 101 -58 55 -35 109 -69 120 -75 11 -7 22 -15 25 -18 3 -3 28 -20 55 -39
28 -19 52 -36 55 -40 3 -3 32 -27 65 -52 61 -47 74 -57 159 -131 57 -49 290
-280 356 -353 127 -140 305 -372 338 -441 9 -18 19 -33 24 -33 4 0 8 -5 8 -10
0 -6 12 -29 27 -53 14 -23 26 -44 26 -47 -1 -3 7 -16 17 -30 17 -24 150 -292
150 -302 0 -3 10 -27 22 -54 12 -27 23 -51 23 -54 1 -3 5 -14 9 -25 26 -66 40
-105 53 -145 8 -25 17 -52 20 -60 3 -8 7 -22 9 -31 2 -9 8 -29 14 -45 6 -16
12 -31 12 -34 0 -3 7 -25 15 -50 8 -25 16 -56 19 -70 3 -14 8 -34 11 -45 7
-22 9 -27 16 -67 3 -15 8 -32 11 -36 3 -5 6 -25 8 -45 1 -21 5 -37 9 -37 4 0
7 -8 7 -17 -1 -10 4 -43 10 -73 21 -99 34 -196 36 -252 1 -16 3 -28 6 -28 3 0
5 -17 5 -38 1 -20 4 -82 7 -137 6 -97 -3 -82 -17 30 -3 28 -9 64 -12 80 -3 17
-7 39 -8 51 -2 11 -8 45 -14 75 -6 30 -12 65 -15 79 -3 20 -30 136 -61 260
-32 130 -130 411 -190 545 -7 17 -23 53 -35 80 -136 308 -366 669 -597 935
-117 135 -388 394 -502 480 -19 14 -58 44 -89 68 -30 23 -58 42 -61 42 -4 0
-16 8 -27 18 -28 26 -113 82 -125 82 -5 0 -9 5 -9 10 0 6 -7 10 -15 10 -8 0
-15 5 -15 10 0 6 -5 10 -11 10 -7 0 -35 14 -63 32 -84 51 -294 157 -300 151
-3 -4 -6 -1 -6 5 0 7 -5 12 -11 12 -6 0 -32 10 -58 23 -25 13 -48 23 -51 23
-5 -1 -43 14 -115 45 -55 24 -338 111 -400 124 -16 4 -37 9 -45 12 -22 9 -23
9 -175 37 -167 31 -191 34 -320 42 -236 15 -771 -2 -920 -30 -11 -2 -40 -7
-65 -11 -68 -10 -298 -72 -418 -112 -261 -86 -463 -176 -735 -326 -49 -27
-365 -239 -401 -269 -22 -18 -80 -67 -130 -108 -147 -122 -342 -321 -491 -501
-22 -26 -162 -215 -183 -245 -46 -70 -112 -175 -112 -179 0 -2 -18 -34 -40
-70 -83 -135 -280 -570 -280 -617 0 -8 -4 -18 -9 -24 -6 -5 -12 -21 -15 -36
-2 -15 -7 -31 -10 -36 -6 -9 -77 -249 -82 -277 -2 -11 -10 -47 -19 -80 -8 -33
-18 -76 -21 -95 -3 -19 -7 -42 -9 -50 -3 -8 -7 -32 -11 -54 -3 -21 -7 -48 -10
-60 -14 -76 -41 -275 -46 -343 -1 -17 -5 -30 -9 -27 -4 2 -6 14 -4 27 2 12 6
72 9 132 3 61 8 121 10 135 3 14 7 54 11 90 8 86 12 118 31 225 9 50 18 104
21 120 2 17 11 57 19 90 8 33 17 71 20 85 7 35 72 256 91 310 70 203 81 230
159 400 35 76 89 180 154 295 29 52 172 265 195 291 6 6 19 23 30 38 11 16 25
33 30 40 6 6 43 51 84 100 77 91 254 274 352 361 52 47 77 67 183 153 58 46
58 45 96 72 19 14 37 27 40 30 8 9 221 150 226 150 2 0 34 19 71 41 145 89
526 267 628 293 6 2 17 6 25 9 105 39 382 117 470 131 19 3 46 8 60 11 51 12
67 15 105 19 22 2 57 7 78 10 73 12 103 15 187 22 47 3 86 7 88 9 5 4 474 -4
507 -9z m-782 -1402 c8 -8 -8 -39 -44 -84 -16 -19 -31 -53 -35 -75 -3 -22 -20
-62 -38 -90 -47 -71 -58 -94 -51 -106 4 -5 0 -21 -9 -34 -20 -30 -20 -45 -1
-45 16 0 21 -39 5 -41 -5 -1 -14 -3 -20 -4 -5 -1 -16 -3 -22 -4 -7 -1 2 -10
20 -20 30 -16 32 -19 17 -31 -10 -8 -15 -25 -14 -44 2 -17 -2 -40 -8 -51 -6
-11 -13 -33 -17 -50 -33 -154 -34 -147 15 -80 24 33 59 77 78 98 57 62 166
125 243 141 13 3 34 8 48 11 48 12 126 19 202 20 43 0 78 4 78 8 0 5 4 6 9 3
5 -4 65 -8 133 -11 67 -3 134 -7 148 -10 14 -3 40 -8 59 -11 19 -3 45 -10 58
-15 13 -5 23 -7 23 -4 0 5 56 -17 119 -47 43 -21 166 -134 209 -193 12 -16 29
-39 37 -50 13 -18 13 -17 4 15 -10 32 -20 71 -30 110 -3 9 5 16 19 18 12 2 22
6 22 8 0 15 -31 62 -54 81 -34 30 -25 57 16 49 l29 -6 -28 35 c-16 19 -27 38
-26 42 0 5 -3 15 -8 24 -5 9 -11 36 -14 59 -3 23 -23 76 -45 117 -22 42 -40
83 -40 90 0 19 -38 91 -60 115 -10 11 -20 29 -23 40 -5 17 -2 19 20 14 35 -9
157 -68 161 -78 2 -4 10 -8 18 -8 31 0 120 -106 166 -201 66 -134 92 -212 104
-318 3 -31 9 -60 14 -64 4 -5 17 11 29 34 59 113 204 265 306 321 32 17 119
44 175 53 19 3 51 9 70 13 50 11 160 9 161 -3 0 -5 -39 -24 -88 -42 -48 -18
-85 -33 -80 -34 4 -1 12 -3 17 -4 6 -1 20 -3 33 -4 18 -1 19 -3 7 -11 -8 -5
-25 -10 -37 -10 -13 0 -23 -4 -23 -10 0 -5 -7 -10 -15 -10 -10 0 -15 -10 -15
-30 0 -23 -6 -33 -22 -39 -13 -5 -28 -6 -34 -4 -7 2 -15 0 -18 -5 -3 -6 1 -13
10 -16 22 -8 8 -24 -38 -43 -30 -12 -38 -20 -35 -34 7 -26 -18 -43 -75 -48
-17 -2 -7 -30 16 -45 23 -15 24 -18 11 -43 -8 -15 -25 -35 -37 -45 -22 -17
-22 -18 -3 -18 11 0 44 9 73 19 28 11 52 17 52 14 0 -3 6 -1 13 5 17 14 172
60 227 67 25 3 57 8 72 11 31 6 221 7 258 1 81 -14 111 -23 168 -50 35 -16 61
-31 59 -33 -2 -3 -28 -7 -58 -10 -59 -7 -165 -50 -200 -83 -15 -13 -36 -21
-59 -21 -23 0 -43 -7 -53 -18 -9 -10 -33 -19 -54 -20 -21 -2 -47 -5 -58 -7
-11 -2 -23 -4 -27 -4 -5 -1 -8 -10 -8 -21 0 -17 -4 -18 -25 -10 -28 11 -33 -1
-10 -20 19 -15 21 -47 3 -33 -7 5 -20 9 -28 8 -8 -1 -21 -3 -28 -3 -8 -1 -11
-9 -7 -21 4 -14 0 -21 -15 -26 -33 -11 -14 -19 48 -21 62 -3 177 -12 232 -18
19 -3 67 -14 105 -26 218 -67 356 -203 405 -398 15 -58 22 -180 11 -186 -12
-8 -34 27 -56 89 -24 67 -32 74 -51 47 -23 -33 -43 -27 -107 28 -32 28 -67 50
-77 50 -10 0 -28 11 -39 25 -18 24 -20 25 -30 8 -14 -25 -37 -9 -68 47 -34 61
-43 69 -43 39 0 -13 -7 -35 -16 -48 l-17 -23 -24 48 c-13 27 -31 55 -38 63
-12 13 -14 11 -9 -14 3 -16 7 -32 10 -37 3 -4 -2 -11 -10 -14 -9 -3 -26 5 -42
21 -24 24 -28 25 -36 11 -14 -25 -49 -19 -87 17 -19 18 -31 25 -28 15 8 -24
-12 -37 -74 -44 -30 -3 -61 -10 -69 -15 -17 -10 -17 -10 75 -14 106 -6 171
-16 230 -37 63 -23 112 -48 125 -63 7 -8 17 -15 22 -15 15 0 97 -80 143 -140
41 -54 102 -169 111 -213 24 -112 40 -381 24 -407 -3 -5 -16 8 -29 30 -12 22
-19 40 -16 40 4 0 0 7 -8 15 -14 13 -57 139 -57 164 0 6 -6 11 -14 11 -8 0
-28 16 -44 36 -27 32 -30 34 -35 15 -8 -34 -35 -14 -42 31 l-7 41 -19 -24 -18
-24 -11 30 c-6 17 -21 57 -32 90 -23 67 -36 81 -57 60 -13 -12 -17 -10 -33 15
-19 32 -54 40 -77 18 -10 -11 -26 1 -82 61 -38 41 -69 71 -69 68 0 -4 11 -30
24 -59 30 -66 45 -119 53 -180 10 -86 1 -88 -80 -11 -68 65 -130 103 -144 90
-3 -4 14 -37 38 -74 24 -37 44 -70 44 -73 1 -3 6 -14 12 -25 22 -40 36 -112
37 -199 2 -82 -1 -118 -19 -215 -8 -46 -49 -129 -81 -166 -14 -16 -36 -41 -48
-55 -35 -41 -118 -110 -131 -110 -8 0 0 24 21 63 18 34 34 69 34 78 0 9 25 58
56 108 30 51 53 95 50 99 -3 3 -6 1 -6 -5 0 -5 -30 -25 -66 -43 -53 -27 -67
-31 -74 -20 -11 17 6 51 60 119 l41 52 -30 -16 c-17 -8 -38 -27 -47 -41 -15
-22 -19 -23 -32 -11 -26 27 -18 230 14 319 l14 39 -42 -30 c-49 -36 -58 -38
-58 -13 0 20 -64 123 -99 160 -12 12 -28 22 -35 22 -7 0 -20 16 -30 36 -9 20
-18 35 -20 33 -8 -8 -18 -120 -22 -239 -2 -69 -4 -125 -4 -125 -1 0 -3 -45 -5
-100 -5 -122 -12 -204 -20 -259 -4 -22 -9 -54 -11 -71 -4 -24 -25 -134 -49
-255 -2 -8 -4 -16 -5 -17 -2 -2 -3 -6 -4 -10 -2 -5 -8 -28 -15 -53 -7 -25 -14
-52 -16 -60 -4 -19 -54 -180 -62 -200 -4 -8 -7 -17 -7 -20 -1 -3 -21 -66 -45
-140 l-44 -136 -131 2 c-150 3 -172 6 -168 25 2 8 29 56 60 107 89 146 92 151
147 262 55 108 123 265 146 335 7 22 16 45 20 50 3 6 10 24 14 40 5 17 10 35
11 40 18 57 54 201 58 234 3 22 8 60 12 84 3 23 8 53 11 67 11 52 10 425 -2
480 l-12 55 -32 -68 c-35 -75 -59 -107 -78 -107 -6 0 -15 -10 -19 -22 -4 -13
-13 -32 -20 -42 -12 -18 -14 -17 -30 17 l-17 36 -24 -47 c-34 -69 -104 -124
-90 -72 7 28 1 25 -42 -20 -21 -22 -43 -40 -49 -40 -14 0 -68 -73 -78 -104 -4
-11 -22 -45 -41 -75 -33 -51 -35 -53 -54 -36 -10 10 -19 14 -20 9 0 -5 -2 -16
-4 -24 -2 -8 -7 -30 -10 -49 -4 -19 -11 -45 -16 -59 -5 -14 -12 -41 -15 -61
-3 -20 -9 -40 -14 -45 -5 -5 -7 0 -6 10 2 11 1 24 -3 29 -19 33 -15 136 10
218 11 38 18 71 15 75 -3 3 -6 0 -6 -6 0 -6 -6 -17 -12 -24 -7 -7 -20 -26 -28
-41 -12 -25 -15 -26 -21 -10 -3 10 -2 21 3 24 5 3 9 8 8 10 -2 6 9 39 33 94
28 64 96 168 147 223 46 50 48 58 19 65 -18 5 -20 10 -14 38 l7 32 -47 -37
c-26 -20 -52 -36 -56 -36 -26 0 6 63 60 122 88 95 129 124 211 153 54 19 94
26 161 28 27 0 49 4 49 7 0 19 -117 39 -134 23 -18 -18 -122 -23 -119 -6 3 14
-40 1 -64 -19 -7 -6 -36 -12 -63 -14 -53 -3 -87 -22 -146 -80 -33 -34 -79 -51
-89 -33 -16 26 -24 3 -20 -56 4 -52 2 -65 -10 -65 -7 0 -17 5 -20 10 -3 6 -12
10 -18 10 -13 0 -19 -33 -20 -112 -1 -56 -10 -54 -26 4 -14 54 -26 73 -41 63
-12 -8 -54 -95 -52 -107 1 -5 -2 -8 -7 -8 -6 0 -10 21 -11 48 0 26 -2 67 -4
92 -2 25 -4 53 -5 63 0 9 -8 17 -17 17 -12 0 -15 6 -10 24 4 17 1 26 -10 30
-11 4 -18 -1 -21 -14 -7 -26 -27 -25 -46 3 -26 38 -108 117 -122 117 -8 0 -11
-7 -8 -20 8 -30 -18 -25 -47 10 -14 16 -38 31 -53 34 -15 3 -43 14 -61 26 -25
15 -35 17 -38 8 -3 -9 -30 -13 -91 -13 -93 0 -94 -5 -2 -25 119 -25 208 -84
329 -219 42 -47 46 -55 31 -63 -22 -13 -110 -11 -155 2 -19 5 -36 10 -38 10
-2 0 18 -22 44 -50 130 -137 217 -293 217 -390 1 -75 -10 -180 -21 -210 -9
-23 -9 -22 -16 14 -4 21 -11 46 -16 55 -4 9 -12 27 -18 41 -27 66 -55 120 -64
126 -13 8 -1 -33 19 -64 8 -13 13 -26 10 -28 -10 -10 -56 51 -97 128 -61 118
-88 158 -104 158 -8 0 -26 23 -40 52 -27 54 -31 45 -17 -31 l9 -44 -55 62
c-57 64 -78 76 -68 39 5 -20 3 -19 -20 7 -14 17 -28 40 -31 53 -7 24 -15 27
-30 12 -21 -21 -40 2 -89 105 -52 111 -56 113 -70 33 -14 -80 -25 -268 -15
-268 3 0 5 -44 6 -98 2 -151 15 -264 47 -402 33 -140 143 -426 189 -492 11
-16 17 -28 14 -28 -9 0 90 -164 168 -280 39 -58 76 -117 83 -132 11 -26 10
-28 -23 -34 -25 -4 -224 -1 -283 6 -2 0 -2 3 2 6 3 3 -3 26 -13 50 -11 24 -19
45 -19 47 0 1 -2 9 -5 17 -3 8 -19 53 -36 100 -17 47 -32 90 -33 95 -7 24 -49
152 -57 170 -5 11 -11 31 -14 45 -4 14 -20 77 -36 140 -16 63 -32 131 -35 150
-3 19 -10 58 -15 85 -19 102 -29 252 -35 525 -2 96 -4 183 -4 193 -1 17 -2 17
-17 3 -8 -9 -26 -16 -40 -16 -22 0 -52 -34 -68 -75 -2 -6 -11 -5 -25 3 -35 21
-41 14 -41 -48 0 -33 -4 -60 -9 -60 -5 0 -20 15 -34 33 -13 17 -35 43 -47 57
l-23 25 5 -30 c3 -16 16 -69 29 -117 13 -48 20 -90 16 -94 -4 -4 -21 3 -38 15
l-30 22 21 -41 c24 -46 26 -71 15 -175 -11 -107 -20 -110 -113 -37 -23 19 -42
32 -42 29 0 -3 17 -40 39 -83 45 -94 65 -150 58 -168 -3 -8 6 -24 20 -37 28
-27 56 -75 51 -90 -4 -13 -125 89 -176 150 -49 58 -93 151 -110 231 -24 113
-30 306 -12 386 13 56 50 146 64 156 6 4 7 8 3 8 -15 0 77 126 136 185 55 54
58 60 38 63 -18 3 -20 6 -10 18 15 18 -4 19 -23 1 -24 -24 -44 -26 -57 -5 -12
19 -13 19 -47 -7 -20 -15 -38 -25 -40 -22 -3 3 -7 21 -8 41 -2 20 -5 39 -8 41
-2 3 -14 -27 -27 -65 -22 -68 -44 -90 -57 -55 -9 24 -22 18 -26 -12 -2 -21 -8
-27 -31 -28 -17 0 -36 -10 -46 -24 l-18 -23 -15 33 c-15 32 -22 64 -33 163 -7
57 -19 63 -44 21 -11 -20 -21 -39 -21 -41 0 -7 -43 -43 -51 -44 -3 0 -10 10
-15 21 -9 20 -11 20 -37 -15 -31 -41 -51 -45 -67 -16 -15 28 -25 25 -44 -15
l-17 -34 -20 20 c-11 11 -24 17 -30 14 -5 -4 -23 -33 -39 -65 -17 -33 -40 -64
-52 -71 -52 -26 -101 -100 -111 -167 -4 -27 -24 -49 -34 -38 -13 13 -7 158 7
201 8 22 14 45 15 50 2 34 44 130 82 187 74 113 214 224 348 277 62 24 88 34
98 36 4 2 8 3 10 5 1 1 11 3 22 5 11 2 40 7 65 11 57 9 189 9 260 -1 61 -9 85
-13 85 -15 0 -1 12 -4 28 -6 19 -3 27 0 27 9 0 17 -30 27 -82 27 -43 0 -70 9
-63 21 3 4 -4 13 -15 19 -11 6 -20 9 -20 6 0 -9 -76 17 -102 35 -14 11 -33 19
-42 19 -12 0 -14 7 -9 30 l6 30 -59 -2 c-46 -2 -58 0 -56 11 4 21 -15 29 -51
21 -56 -11 -157 21 -126 41 19 11 -18 26 -101 39 -41 6 -82 13 -90 14 -8 2
-15 9 -15 17 0 18 94 55 171 68 60 10 328 8 374 -2 14 -4 41 -8 60 -11 37 -5
163 -40 179 -50 10 -6 52 -14 106 -20 27 -3 28 -3 11 8 -42 24 -64 53 -61 79
2 19 -9 38 -46 77 -27 29 -46 56 -43 64 3 9 -3 17 -15 21 -20 6 -113 93 -157
146 -12 14 -24 38 -28 52 -3 15 -12 27 -19 28 -56 5 -69 7 -79 17 -12 12 -12
13 72 16 83 4 243 -34 315 -74 140 -78 242 -195 344 -395 l40 -80 -7 50 c-8
62 -8 147 1 202 23 145 121 319 234 413 54 45 153 105 153 93 0 -4 5 -2 12 5
13 13 31 16 41 6z"/>
<path d="M5437 7255 c-24 -6 -68 -27 -98 -46 -30 -20 -80 -50 -111 -68 -75
-42 -142 -98 -148 -124 -3 -12 -28 -32 -63 -49 -36 -19 -63 -40 -72 -59 -18
-35 -12 -36 52 -8 52 22 67 27 128 35 164 23 738 23 855 0 14 -3 42 -7 64 -10
21 -4 42 -9 47 -12 5 -3 22 -7 37 -10 15 -3 35 -7 45 -10 26 -8 20 12 -10 35
-16 12 -33 24 -38 28 -6 5 -27 20 -47 35 -20 16 -39 36 -43 47 -3 11 -19 21
-36 25 -17 3 -45 20 -62 38 -44 45 -228 136 -302 149 -86 16 -147 17 -198 4z"/>
<path d="M6486 7018 c-8 -19 -17 -46 -20 -59 -3 -13 -7 -34 -10 -47 -11 -51
15 -6 34 59 23 76 20 105 -4 47z"/>
<path d="M4655 6968 c11 -49 23 -78 34 -78 8 0 4 27 -14 88 -11 35 -28 26 -20
-10z"/>
<path d="M5383 6783 c-13 -2 -23 -8 -23 -12 0 -4 -19 -6 -42 -6 -32 2 -50 -4
-68 -20 -14 -12 -50 -30 -81 -39 -95 -29 -116 -55 -47 -61 55 -4 119 -25 201
-66 83 -41 122 -68 215 -146 30 -25 31 -25 131 46 36 26 73 50 81 54 8 4 29
16 45 27 17 11 37 23 45 26 8 3 29 12 45 19 37 16 60 22 105 29 90 14 104 21
68 31 -13 4 -38 13 -55 21 -18 8 -50 17 -70 20 -66 10 -78 11 -90 13 -7 0 -10
7 -7 14 6 18 -29 34 -96 44 -60 10 -321 14 -357 6z"/>
<path d="M6754 6664 l-49 -46 48 33 c52 36 75 59 60 59 -6 0 -32 -21 -59 -46z"/>
<path d="M4430 6652 c0 -4 16 -23 35 -42 37 -36 46 -31 18 10 -24 35 -53 53
-53 32z"/>
<path d="M5180 6186 c0 -7 6 -19 14 -25 19 -16 32 5 16 24 -16 19 -30 19 -30
1z"/>
<path d="M5319 5750 c19 -58 43 -90 35 -45 -7 40 -31 95 -42 95 -5 0 -2 -22 7
-50z"/>
<path d="M212 4111 c100 -196 186 -366 192 -378 6 -13 15 -23 19 -23 5 0 5 -4
2 -10 -3 -5 -2 -10 4 -10 5 0 14 -12 20 -27 10 -26 10 -26 5 7 -4 19 -13 48
-20 65 -7 16 -33 86 -59 155 -25 69 -50 134 -54 145 -57 129 -123 323 -113
329 4 2 39 7 77 11 288 28 375 53 249 70 -48 6 -229 15 -386 19 l-117 3 181
-356z"/>
<path d="M10567 4458 c-38 -3 -72 -9 -75 -13 -13 -13 48 -37 123 -49 53 -9
199 -28 222 -30 44 -3 46 -19 12 -107 -17 -46 -36 -90 -42 -96 -5 -7 -7 -13
-3 -13 3 0 -6 -26 -20 -57 -13 -32 -26 -64 -28 -73 -2 -8 -7 -24 -11 -35 -24
-58 -47 -121 -49 -130 -1 -5 -15 -47 -30 -93 -15 -46 -26 -85 -23 -88 2 -3 35
55 72 128 37 73 71 137 76 142 5 6 9 18 9 28 0 10 5 18 10 18 6 0 10 5 10 10
0 6 49 110 109 232 61 123 108 224 105 227 -7 7 -393 7 -467 -1z"/>
<path d="M1158 4205 c-2 -2 -136 -6 -298 -9 -162 -3 -304 -8 -315 -10 -11 -3
-26 -5 -32 -5 -7 -1 -13 -10 -13 -21 0 -18 38 -121 77 -210 110 -250 136 -390
134 -710 -2 -390 -35 -543 -186 -865 -26 -55 -51 -108 -56 -117 -8 -15 -1 -16
71 -15 44 0 82 -2 86 -5 3 -4 18 -3 33 2 16 4 34 4 42 0 7 -5 21 -4 30 1 10 5
20 6 23 1 5 -9 70 -7 85 3 6 3 11 3 11 -2 0 -4 305 -9 678 -9 1375 -4 2729
-22 2877 -39 28 -3 68 -11 90 -17 22 -6 45 -13 50 -14 6 -2 42 -12 80 -24 39
-12 75 -22 80 -24 6 -1 66 -21 135 -43 112 -37 227 -73 255 -79 6 -1 39 -10
75 -19 102 -25 96 -24 215 -41 111 -16 403 -7 499 16 22 5 44 7 48 4 4 -3 8
-1 8 3 0 5 10 9 23 10 32 1 183 45 344 99 76 25 146 47 155 49 9 2 25 8 35 13
37 19 211 53 348 68 194 20 1128 33 2692 37 337 1 613 6 613 10 0 5 5 5 12 1
7 -4 39 -7 73 -6 33 2 67 2 75 2 71 -1 135 2 142 6 4 3 8 0 8 -6 0 -6 5 -8 11
-4 6 4 45 6 85 6 41 0 74 3 74 7 0 5 -29 68 -64 142 -87 183 -127 301 -172
514 -20 97 -26 457 -10 575 5 36 10 74 11 85 2 21 4 29 31 145 10 41 19 77 19
80 7 29 50 169 62 200 3 8 7 20 9 25 1 6 16 48 32 95 17 46 28 87 26 90 -6 5
-9410 10 -9416 5z m177 -649 c174 -18 285 -93 284 -191 0 -22 -6 -53 -14 -70
-14 -29 -14 -28 -12 32 2 34 -1 59 -5 57 -4 -3 -8 -12 -8 -20 0 -20 -27 -71
-48 -92 -21 -21 -80 -50 -113 -56 -13 -3 -52 -5 -85 -5 -61 -1 -61 -1 -58 -28
2 -16 6 -70 9 -122 3 -51 6 -96 7 -100 3 -26 -7 -29 -101 -28 -103 2 -128 10
-99 31 24 18 40 62 44 126 4 55 -10 120 -26 120 -20 0 -40 -13 -40 -27 0 -19
-24 -11 -28 10 -4 20 25 52 56 61 12 4 27 16 33 27 13 25 13 146 0 181 -5 14
-8 28 -5 31 2 2 -2 10 -11 17 -53 44 43 64 220 46z m735 -11 c6 -7 8 -30 6
-51 l-4 -39 14 32 c14 32 31 49 40 40 3 -3 0 -13 -6 -24 -24 -38 39 -187 77
-181 10 2 20 -9 27 -31 l12 -33 16 23 c11 16 17 19 17 9 1 -21 -10 -35 -36
-49 -35 -18 -27 -30 17 -24 33 5 40 3 40 -11 0 -10 -8 -16 -24 -16 -27 0 -40
-23 -27 -49 5 -9 13 -45 17 -80 5 -51 11 -64 28 -71 11 -4 41 -29 66 -55 l45
-46 -107 2 c-60 1 -105 5 -102 10 3 5 18 9 35 9 16 0 29 5 29 10 0 6 -19 10
-42 11 -50 0 -99 6 -104 12 -2 2 2 20 10 39 10 24 12 38 5 45 -6 6 -11 17 -12
24 -2 8 -13 31 -26 52 -20 33 -25 36 -40 25 -20 -16 -31 -30 -31 -41 0 -5 7
-1 16 7 29 30 34 16 8 -24 -25 -37 -44 -51 -44 -32 0 11 -91 101 -115 115 -21
11 -32 1 -39 -35 -5 -31 8 -37 23 -10 8 12 10 -9 11 -79 l0 -95 -110 -1 c-60
0 -110 3 -110 7 0 5 3 10 8 12 16 7 91 106 116 154 33 64 45 124 24 124 -8 0
-22 6 -32 13 -16 12 -15 15 11 49 25 33 54 54 38 28 -12 -19 12 -10 32 13 27
29 61 97 66 133 2 16 -2 41 -9 55 -7 15 -11 29 -8 31 11 11 164 5 174 -7z
m747 1 c13 -4 46 -23 74 -42 28 -19 57 -34 64 -34 17 0 25 -26 27 -82 0 -46
-13 -81 -41 -108 -35 -33 -53 -60 -66 -96 l-13 -38 -14 30 c-17 34 -13 64 8
64 28 0 99 85 103 121 1 19 4 46 5 61 1 15 -2 25 -6 22 -4 -3 -8 -13 -8 -23 0
-40 -35 -97 -92 -152 -42 -40 -58 -62 -52 -71 5 -7 9 -15 9 -18 1 -19 72 -124
115 -170 28 -30 48 -48 44 -40 -9 17 -12 20 -54 70 -62 73 -26 51 53 -32 l82
-87 41 42 c71 73 149 208 142 245 -2 9 -16 23 -31 30 -30 15 -30 16 17 70 14
15 22 19 27 10 5 -8 11 -8 21 3 12 12 51 86 53 99 0 3 3 10 7 16 13 19 12 68
0 91 -7 12 -9 24 -5 26 22 12 212 -7 214 -21 0 -4 3 -26 5 -50 6 -47 36 -125
57 -146 7 -7 23 -17 35 -20 12 -4 20 -11 18 -15 -3 -4 -1 -13 4 -21 8 -13 12
-12 24 5 13 17 15 18 16 3 0 -20 -37 -58 -57 -58 -7 0 -13 -4 -13 -8 0 -5 19
-8 43 -8 44 1 64 -17 25 -23 -33 -5 -38 -19 -22 -70 8 -25 14 -58 14 -73 0
-35 9 -58 24 -58 17 0 88 -71 94 -94 1 -5 -14 -9 -33 -8 -19 0 -69 1 -110 1
-41 1 -75 5 -75 9 0 4 10 8 23 9 60 1 77 4 77 12 0 4 -24 9 -52 10 -93 3 -114
11 -98 41 16 31 11 75 -13 111 -26 38 -59 48 -83 24 -22 -22 -9 -33 14 -12 29
27 33 20 11 -18 -29 -48 -36 -50 -63 -18 -49 58 -62 70 -89 88 -37 24 -52 8
-48 -50 2 -18 3 -18 15 4 12 21 14 22 17 7 2 -10 3 -54 1 -98 -3 -74 -5 -79
-25 -78 -51 4 -137 -1 -137 -7 0 -5 24 -9 52 -11 85 -4 75 -18 -14 -19 -110
-2 -163 -10 -217 -35 -25 -12 -62 -21 -81 -22 -28 -1 -37 4 -48 28 -8 16 -15
39 -16 52 0 13 -4 24 -7 24 -3 0 -6 6 -6 13 -1 20 -14 77 -26 107 -3 8 -10 31
-16 50 -29 90 -46 106 -102 98 -22 -3 -24 -8 -25 -58 -1 -91 33 -189 80 -233
30 -27 20 -30 -113 -28 -102 1 -104 15 -3 23 51 3 37 18 -16 17 -53 -2 -112 9
-112 20 0 3 6 15 14 26 7 11 13 27 14 35 0 8 1 31 2 50 3 39 -14 90 -30 90 -5
0 -17 12 -26 26 -17 25 -17 26 20 60 20 19 35 38 31 43 -3 5 -2 12 3 15 13 8
4 134 -12 168 -9 17 -16 35 -16 39 0 7 40 23 115 46 35 11 200 10 232 -1z
m1373 -7 c75 -27 192 -102 167 -107 -20 -4 -22 -24 -6 -54 9 -16 13 -18 20 -7
21 35 41 -35 41 -140 -1 -161 -80 -284 -206 -323 -48 -14 -226 -21 -226 -9 0
9 45 17 73 12 4 0 7 3 7 9 0 9 -110 16 -162 11 -10 -1 -25 2 -33 7 -14 7 -14
11 3 33 35 44 41 94 38 298 -2 108 -6 205 -9 216 -4 11 -9 30 -13 42 -4 15 -1
22 13 26 37 9 259 -1 293 -14z m489 -3 c12 -13 13 -18 3 -25 -25 -15 -32 -79
-28 -290 2 -153 7 -224 16 -244 7 -15 10 -30 6 -34 -8 -8 -171 -12 -199 -5
-15 4 -16 7 -4 21 29 33 41 118 40 281 0 146 -15 239 -45 282 -24 35 -15 38
101 33 70 -2 98 -7 110 -19z m470 9 c77 -8 91 -13 91 -30 0 -23 -54 -135 -65
-135 -5 0 -27 16 -48 35 -101 93 -187 90 -187 -7 0 -45 -11 -48 -39 -10 l-20
27 -1 -25 c0 -14 4 -30 8 -37 12 -19 102 -59 173 -78 62 -16 82 -26 167 -80
29 -19 31 -23 28 -72 -3 -56 7 -64 17 -13 11 51 23 33 19 -27 -6 -92 -52 -154
-135 -181 -40 -13 -277 -23 -277 -12 0 3 -26 6 -58 8 -82 4 -87 13 -52 95 35
84 48 101 65 87 7 -6 20 -7 29 -4 14 5 16 2 11 -17 -5 -20 0 -27 30 -43 19
-11 35 -22 35 -26 0 -9 62 -40 90 -45 11 -2 22 0 25 5 3 5 11 7 18 4 17 -6 87
54 87 75 0 45 -58 83 -204 131 -127 42 -198 144 -174 254 11 53 62 112 105
122 15 3 33 7 38 8 14 4 149 -2 224 -9z m676 3 c27 -3 30 -6 29 -34 -2 -35
-67 -144 -72 -120 -5 23 -101 65 -160 70 -45 4 -54 1 -63 -16 -11 -21 -8 -122
4 -134 15 -15 61 -4 108 25 28 17 54 31 58 31 8 0 7 -198 -2 -206 -3 -3 -23 6
-44 20 -45 31 -107 35 -122 8 -10 -19 -13 -64 -12 -159 l1 -62 30 9 c17 5 30
7 30 4 0 -10 89 32 132 62 43 30 47 31 60 16 13 -15 58 -113 58 -126 0 -10
-480 0 -491 11 -8 8 -7 17 1 33 7 13 14 61 16 108 4 91 -5 117 -37 107 -27 -9
-23 10 6 29 40 26 29 36 -22 21 l-48 -14 31 27 c46 40 67 88 70 160 2 47 -2
72 -16 97 l-19 34 32 3 c36 4 396 1 442 -4z m924 -2 c19 -12 12 -46 -20 -102
-17 -30 -33 -54 -36 -54 -3 0 -18 11 -35 25 -51 43 -178 65 -199 34 -14 -20
-5 -129 11 -139 15 -9 62 3 96 25 13 8 34 22 47 30 l23 14 -2 -105 c-1 -58 -4
-108 -8 -111 -3 -3 -14 0 -23 8 -54 43 -124 54 -142 21 -8 -16 -14 -110 -12
-193 l1 -26 58 13 c71 17 102 32 147 72 18 16 55 16 55 -1 0 -7 13 -38 29 -69
l29 -56 -242 2 c-133 1 -247 6 -254 10 -8 5 -8 14 -1 34 14 36 20 202 8 202
-6 0 -7 5 -3 11 5 8 -1 10 -19 7 -29 -6 -27 7 5 30 24 17 13 36 -13 22 -10 -6
-19 -8 -19 -5 0 3 -10 0 -22 -6 -17 -8 -14 -3 10 22 18 18 41 47 50 63 21 41
25 151 6 187 -18 36 -18 37 9 42 38 6 454 0 466 -7z m461 0 c25 -2 58 -4 73
-5 38 -1 42 -21 18 -75 -11 -26 -21 -50 -21 -54 -2 -11 -22 -32 -30 -32 -4 0
-25 16 -46 35 -42 37 -97 68 -128 70 -32 3 -63 -39 -61 -80 3 -40 -7 -45 -30
-12 -13 18 -17 19 -24 8 -13 -21 13 -55 57 -74 32 -13 106 -39 122 -42 43 -8
133 -50 149 -69 8 -9 20 -16 27 -16 15 0 17 -10 16 -85 -1 -35 2 -45 8 -35 5
8 10 24 10 35 0 11 5 27 11 35 13 19 6 -104 -9 -140 -13 -33 -42 -65 -67 -74
-11 -4 -20 -7 -20 -6 0 1 -12 -3 -27 -9 -15 -5 -51 -13 -80 -17 -81 -9 -548
-12 -548 -2 0 4 28 8 63 9 136 1 153 16 97 83 -22 26 -40 52 -40 57 0 18 16 8
33 -21 10 -16 27 -35 38 -41 24 -12 35 -1 70 69 16 33 25 42 38 36 9 -4 24 -6
34 -6 18 1 23 -13 7 -23 -14 -9 0 -35 19 -35 9 0 28 -11 43 -24 37 -35 93 -57
107 -43 8 8 11 8 11 -1 0 -18 77 23 95 52 33 49 -21 97 -164 145 -81 28 -121
48 -145 75 -27 31 -57 101 -60 144 -5 77 52 156 121 167 21 4 43 8 48 9 10 3
90 -1 185 -8z m732 -4 c25 -10 27 -14 17 -39 -22 -61 -53 -123 -60 -123 -8 0
13 69 28 93 9 15 16 57 8 57 -3 0 -19 -22 -36 -50 -34 -55 -37 -57 -53 -35 -6
7 -31 15 -56 17 l-45 3 3 -215 c1 -118 3 -236 5 -263 1 -35 -2 -48 -13 -51
-27 -7 -165 -5 -177 2 -8 5 -8 20 2 57 19 73 15 452 -4 464 -17 11 -53 -1 -88
-29 -33 -26 -53 -15 -82 47 -13 26 -27 56 -32 65 -8 17 8 17 274 14 173 -2
293 -8 309 -14z m434 10 c64 -2 81 -16 87 -74 6 -50 44 -147 58 -149 5 -1 14
-3 19 -4 6 -1 15 -3 20 -4 6 0 10 -15 10 -33 l0 -31 25 23 c16 15 25 19 25 10
0 -16 -29 -50 -42 -50 -5 0 -16 -6 -23 -14 -12 -11 -7 -13 29 -9 54 7 71 -13
26 -29 -34 -11 -34 -12 -14 -93 3 -11 8 -37 11 -58 4 -25 13 -42 27 -49 11 -5
39 -30 62 -53 37 -39 39 -44 20 -47 -25 -4 -216 7 -198 11 6 2 17 5 22 6 6 1
24 3 40 4 51 2 33 18 -22 20 -93 4 -101 5 -104 23 -1 10 2 20 6 23 23 14 -14
139 -45 151 -24 10 -54 -15 -61 -51 l-6 -34 -66 65 c-72 72 -86 72 -96 4 -6
-35 -6 -35 9 -10 18 31 17 33 20 -72 3 -103 9 -98 -122 -96 -71 1 -93 4 -93
14 0 8 4 14 8 14 12 0 76 88 110 151 44 81 45 110 7 127 -14 6 -25 15 -25 19
1 5 16 26 36 48 19 22 31 31 27 20 -7 -19 -6 -19 17 -4 48 32 102 184 71 203
-26 16 -10 32 32 30 23 0 65 -2 93 -2z m926 -10 c24 -10 26 -15 19 -39 -13
-45 -52 -123 -62 -123 -9 0 2 33 28 83 9 17 18 41 20 52 3 17 0 16 -19 -7 -13
-15 -31 -39 -41 -53 -17 -24 -18 -24 -50 -7 -17 9 -45 17 -62 17 l-30 0 2
-125 c0 -69 3 -186 4 -260 2 -74 0 -140 -4 -147 -5 -9 1 -12 20 -10 19 1 28
-3 28 -13 0 -12 -20 -16 -105 -18 -109 -4 -128 1 -50 13 25 4 52 9 60 10 8 2
18 4 23 4 4 1 7 4 7 9 0 4 -36 7 -80 6 -91 -1 -107 5 -92 32 5 11 13 41 16 69
8 53 9 338 2 370 -3 11 -5 27 -5 36 -1 23 -24 30 -48 16 -82 -48 -83 -48 -96
-35 -27 27 -75 127 -63 132 24 9 552 -2 578 -12z m573 5 c11 -2 21 -11 23 -20
4 -18 -56 -137 -68 -137 -4 0 -13 7 -20 15 -12 14 -34 26 -100 52 -33 13 -101
8 -111 -9 -11 -16 -11 -109 -1 -125 7 -11 25 -16 52 -14 9 0 39 16 68 35 37
25 52 31 53 20 0 -8 0 -34 0 -59 0 -152 -2 -162 -33 -132 -15 15 -41 26 -86
37 -50 12 -63 -15 -64 -134 0 -54 2 -99 5 -102 3 -4 12 -2 19 2 7 5 20 9 28 9
41 2 120 37 145 65 33 36 53 26 85 -44 17 -35 30 -67 30 -69 0 -8 -488 -2
-496 5 -3 4 0 24 7 45 15 46 20 171 7 196 -6 12 -17 17 -29 14 -26 -7 -24 5 6
27 35 27 21 37 -27 20 l-41 -14 41 44 c52 56 72 134 53 204 -7 26 -17 50 -24
54 -12 7 -2 13 38 21 25 5 413 0 440 -6z m-7185 -369 c0 -5 -2 -8 -5 -8 -3 0
-12 0 -20 0 -8 0 -15 4 -15 9 0 4 9 8 20 7 11 0 20 -4 20 -8z m7271 -230 c9
-21 9 -32 1 -40 -12 -12 -291 -25 -280 -13 4 5 52 10 105 12 122 5 163 16 156
43 -3 11 -9 20 -13 20 -8 0 -60 75 -60 87 1 14 79 -79 91 -109z m-4069 46 c39
-50 47 -77 26 -90 -17 -11 -338 -18 -338 -8 0 5 57 10 126 12 126 2 204 14
204 32 0 5 -8 17 -18 27 -10 10 -29 33 -42 52 -37 53 -1 32 42 -25z m-4559
-78 c8 -20 -23 -26 -128 -24 -97 1 -80 11 40 23 33 4 62 8 64 11 8 8 19 4 24
-10z m6461 -1 c7 -20 1 -22 -103 -23 -119 -2 -118 6 4 22 27 4 51 8 52 9 9 9
42 3 47 -8z m-5926 -20 c3 -3 -33 -5 -79 -5 -46 0 -79 4 -72 8 12 8 143 6 151
-3z m302 5 c0 -5 -8 -10 -17 -10 -15 0 -16 2 -3 10 19 12 20 12 20 0z m335 -8
c-3 -3 -11 0 -18 7 -9 10 -8 11 6 5 10 -3 15 -9 12 -12z m785 8 c0 -5 -4 -10
-10 -10 -5 0 -10 5 -10 10 0 6 5 10 10 10 6 0 10 -4 10 -10z m680 0 c0 -5 -12
-10 -27 -9 -25 0 -26 1 -8 9 27 12 35 12 35 0z m693 -2 c-2 -5 -37 -7 -76 -7
-58 2 -64 3 -32 8 55 8 114 8 108 -1z m822 -6 c-3 -3 -11 0 -18 7 -9 10 -8 11
6 5 10 -3 15 -9 12 -12z m79 10 c2 -4 -5 -9 -17 -9 -17 -2 -19 0 -7 7 18 12
18 12 24 2z m1030 -1 c-7 -8 -54 -9 -49 -1 2 3 15 6 29 6 14 0 23 -2 20 -5z
m1596 -3 c0 -5 -28 -7 -62 -7 -50 1 -56 3 -28 8 48 8 90 8 90 -1z m1380 0 c0
-4 -4 -8 -9 -8 -6 0 -12 4 -15 8 -3 5 1 9 9 9 8 0 15 -4 15 -9z m100 2 c0 -5
-19 -9 -42 -9 l-43 2 35 7 c19 4 38 8 43 9 4 0 7 -3 7 -9z"/>
<path d="M1254 3512 c-20 -3 -21 -8 -18 -73 3 -86 10 -97 19 -32 8 61 13 69
54 86 l34 14 -34 4 c-19 2 -44 3 -55 1z"/>
<path d="M1302 3462 c-19 -13 -26 -75 -19 -179 1 -24 36 -24 94 -1 47 19 61
30 76 60 16 32 17 41 5 65 -7 15 -25 34 -40 41 -35 16 -100 24 -116 14z"/>
<path d="M1236 3342 c-2 -4 -1 -14 5 -22 7 -12 9 -10 9 8 0 23 -5 28 -14 14z"/>
<path d="M1241 3108 c0 -37 2 -58 7 -50 8 12 7 100 -1 108 -2 2 -5 -24 -6 -58z"/>
<path d="M1921 3345 c-20 -50 -21 -55 -11 -55 15 0 32 39 27 63 -3 20 -4 19
-16 -8z"/>
<path d="M1964 3333 c-9 -34 -9 -58 0 -107 l7 -38 -31 22 -32 23 14 -22 c18
-30 53 -37 84 -16 24 15 26 21 20 61 -6 47 -31 104 -45 104 -5 0 -12 -12 -17
-27z"/>
<path d="M2260 2922 c0 -4 9 -8 20 -8 11 0 20 4 20 8 0 4 -9 8 -20 8 -11 0
-20 -4 -20 -8z"/>
<path d="M3511 3516 c-13 -16 -10 -63 7 -91 10 -17 11 -10 12 43 0 34 -2 62
-4 62 -2 0 -9 -6 -15 -14z"/>
<path d="M2650 3502 c0 -5 14 -9 30 -9 17 0 30 4 30 9 0 4 -13 8 -30 8 -16 0
-30 -4 -30 -8z"/>
<path d="M2658 3453 c-8 -10 -13 -46 -14 -94 -2 -96 7 -108 67 -90 44 13 139
97 139 123 0 43 -164 94 -192 61z"/>
<path d="M3351 3344 c-13 -30 -15 -57 -2 -50 14 9 31 65 22 70 -5 3 -13 -6
-20 -20z"/>
<path d="M3402 3348 c-14 -14 -16 -106 -2 -142 10 -27 34 -26 56 3 13 16 2 76
-22 122 -17 33 -16 33 -32 17z"/>
<path d="M3347 3215 c20 -19 39 -32 42 -29 5 5 -60 63 -72 64 -4 0 9 -16 30
-35z"/>
<path d="M2984 2937 c-25 -27 -55 -47 -78 -53 -14 -3 -30 -12 -37 -20 -9 -11
-8 -14 8 -14 11 0 23 3 27 8 4 4 11 7 14 7 4 0 28 13 54 28 32 19 45 32 42 42
-7 18 -15 18 -30 2z"/>
<path d="M3700 2922 c0 -5 9 -8 20 -7 29 2 33 10 5 13 -14 1 -25 -2 -25 -6z"/>
<path d="M4014 3488 c-9 -26 -8 -317 0 -326 3 -3 6 26 7 64 2 192 10 241 42
266 l22 18 -32 0 c-24 0 -33 -5 -39 -22z"/>
<path d="M4068 3452 c-15 -17 -24 -309 -14 -396 9 -68 18 -80 50 -72 31 8 96
63 96 82 0 8 4 14 9 14 5 0 12 12 16 28 5 15 10 34 12 42 3 8 6 53 8 100 3 71
0 92 -18 130 -33 67 -128 110 -159 72z"/>
<path d="M4380 3255 c0 -27 3 -45 7 -42 7 8 6 77 -2 85 -3 3 -5 -16 -5 -43z"/>
<path d="M4005 3141 c-3 -5 -2 -12 3 -15 5 -3 9 1 9 9 0 17 -3 19 -12 6z"/>
<path d="M4355 3125 c-20 -61 -51 -105 -101 -143 -31 -24 -53 -46 -50 -49 11
-11 90 53 128 102 41 54 50 76 37 96 -6 10 -9 9 -14 -6z"/>
<path d="M4075 2920 c3 -5 8 -10 11 -10 2 0 4 5 4 10 0 6 -5 10 -11 10 -5 0
-7 -4 -4 -10z"/>
<path d="M4642 3517 c-29 -35 -36 -94 -33 -306 2 -117 11 -77 16 65 4 151 11
201 31 232 15 23 4 31 -14 9z"/>
<path d="M4611 3114 c0 -11 3 -14 6 -6 3 7 2 16 -1 19 -3 4 -6 -2 -5 -13z"/>
<path d="M5202 3509 c-8 -12 -15 -31 -17 -43 -4 -20 -4 -20 15 3 11 13 20 32
20 42 0 24 -2 24 -18 -2z"/>
<path d="M4849 3237 c15 -19 41 -23 41 -7 0 6 -4 10 -9 10 -5 0 -18 3 -28 7
-16 6 -16 5 -4 -10z"/>
<path d="M4945 3200 c3 -5 12 -10 20 -10 8 0 17 5 20 10 4 6 -5 10 -20 10 -15
0 -24 -4 -20 -10z"/>
<path d="M5030 3178 c0 -4 12 -8 26 -8 14 0 23 4 19 9 -6 11 -45 10 -45 -1z"/>
<path d="M4785 2950 c-17 -6 -16 -7 8 -12 15 -3 30 -2 32 2 7 12 -18 18 -40
10z"/>
<path d="M5813 3493 c-27 -38 -35 -63 -20 -57 15 6 52 72 45 80 -3 3 -15 -7
-25 -23z"/>
<path d="M5506 3468 c1 -24 3 -59 4 -78 2 -41 6 -32 15 33 5 38 11 50 33 61
15 7 32 11 39 9 6 -2 14 0 17 5 3 5 -21 10 -53 11 l-57 2 2 -43z"/>
<path d="M5506 3163 c1 -93 8 -131 12 -70 7 85 20 137 36 137 6 1 24 6 40 13
27 12 25 13 -30 13 l-60 1 2 -94z"/>
<path d="M6724 3507 c-20 -25 -44 -63 -44 -72 0 -27 61 49 66 82 3 18 1 17
-22 -10z"/>
<path d="M6404 3438 c1 -78 12 -92 20 -25 9 64 30 86 79 78 4 0 7 3 7 8 0 5
-24 11 -53 13 l-53 3 0 -77z"/>
<path d="M6406 3173 c1 -46 4 -86 7 -89 3 -3 8 22 12 56 8 71 28 99 72 102 49
3 31 10 -34 13 l-58 3 1 -85z"/>
<path d="M6411 3054 c0 -11 3 -14 6 -6 3 7 2 16 -1 19 -3 4 -6 -2 -5 -13z"/>
<path d="M7271 3499 c-6 -18 -11 -37 -11 -43 0 -19 29 18 35 47 10 38 -10 35
-24 -4z"/>
<path d="M6938 3228 c12 -12 25 -18 29 -14 4 4 -1 14 -11 22 -31 22 -43 17
-18 -8z"/>
<path d="M7020 3200 c0 -5 9 -10 19 -10 11 0 23 5 26 10 4 6 -5 10 -19 10 -14
0 -26 -4 -26 -10z"/>
<path d="M7110 3178 c0 -4 12 -8 26 -8 14 0 23 4 19 9 -6 11 -45 10 -45 -1z"/>
<path d="M6863 2939 c11 -7 23 -7 35 0 14 9 11 10 -18 10 -29 0 -32 -1 -17
-10z"/>
<path d="M7483 3498 c-28 -9 -50 -34 -40 -45 2 -2 30 10 63 27 43 22 52 30 34
29 -14 -1 -39 -6 -57 -11z"/>
<path d="M7715 3502 c-5 -4 -11 -11 -12 -17 -7 -45 -5 -341 2 -333 3 3 7 56
10 119 6 165 13 201 38 221 l22 18 -25 0 c-14 0 -29 -4 -35 -8z"/>
<path d="M7702 3120 c0 -14 2 -19 5 -12 2 6 2 18 0 25 -3 6 -5 1 -5 -13z"/>
<path d="M8427 3523 c-9 -8 -9 -66 -1 -87 13 -33 24 -14 20 34 -3 51 -8 65
-19 53z"/>
<path d="M8285 3398 c-20 -51 -27 -108 -12 -108 6 0 7 -3 4 -7 -4 -3 4 -21 18
-38 31 -41 16 -64 -19 -29 -9 8 -16 11 -16 6 0 -5 9 -17 20 -27 23 -21 60 -15
90 15 20 20 20 20 -5 86 -14 37 -25 68 -25 70 0 2 -4 4 -9 4 -5 0 -14 -14 -21
-30 -7 -17 -16 -33 -21 -35 -9 -6 -7 4 14 83 17 62 6 69 -18 10z"/>
<path d="M8625 2920 c4 -6 11 -8 16 -5 14 9 11 15 -7 15 -8 0 -12 -5 -9 -10z"/>
<path d="M8845 3498 c-34 -13 -48 -29 -35 -42 5 -5 20 0 37 11 15 11 42 25 58
31 l30 10 -30 0 c-16 0 -43 -4 -60 -10z"/>
<path d="M9071 3492 c-11 -21 -15 -302 -4 -302 4 0 9 30 9 68 2 89 11 193 19
213 3 9 16 21 28 27 20 10 20 11 -10 11 -21 1 -36 -5 -42 -17z"/>
<path d="M9063 3159 c-2 -23 3 -25 10 -4 4 8 3 16 -1 19 -4 3 -9 -4 -9 -15z"/>
<path d="M9847 3486 c-34 -55 -35 -81 -1 -35 36 48 45 67 36 73 -4 2 -20 -15
-35 -38z"/>
<path d="M9544 3430 c1 -44 4 -80 9 -80 4 0 7 12 8 28 2 79 16 112 50 112 10
0 21 5 24 10 4 6 -13 10 -43 10 l-49 0 1 -80z"/>
<path d="M9650 3499 c0 -5 5 -7 10 -4 6 3 10 8 10 11 0 2 -4 4 -10 4 -5 0 -10
-5 -10 -11z"/>
<path d="M9545 3177 c3 -73 14 -120 16 -66 3 106 29 142 94 129 6 -1 6 2 2 7
-5 4 -33 8 -62 8 l-54 0 4 -78z"/>
<path d="M9552 3055 c0 -16 2 -22 5 -12 2 9 2 23 0 30 -3 6 -5 -1 -5 -18z"/>
<path d="M4100 2022 c0 -4 15 -13 33 -20 17 -8 41 -17 52 -22 39 -16 110 -42
125 -46 20 -5 161 -52 180 -61 8 -3 20 -7 25 -8 6 0 17 -4 25 -7 8 -4 24 -9
35 -11 11 -3 62 -17 112 -31 51 -14 103 -28 115 -30 13 -3 34 -7 48 -11 14 -3
36 -8 50 -11 14 -3 30 -6 35 -8 47 -12 156 -30 310 -51 161 -21 449 -21 635 1
30 4 69 8 85 9 17 2 30 4 30 5 0 1 9 3 20 4 17 3 85 15 163 31 13 2 31 6 40 9
9 3 28 7 42 10 14 3 52 12 85 21 33 9 67 18 75 20 8 2 17 4 20 5 3 1 8 2 12 1
4 0 20 4 35 10 15 6 36 12 45 14 29 6 246 74 343 107 156 54 183 77 83 72
-158 -8 -266 -22 -368 -49 -14 -3 -34 -8 -46 -10 -12 -3 -79 -23 -150 -46 -71
-23 -133 -42 -139 -43 -5 -2 -35 -10 -65 -20 -30 -10 -68 -20 -85 -23 -16 -3
-38 -9 -48 -15 -10 -5 -21 -7 -24 -4 -3 3 -14 1 -24 -4 -9 -6 -35 -13 -56 -16
-21 -3 -41 -8 -44 -10 -4 -2 -31 -6 -60 -10 -30 -3 -75 -10 -102 -14 -56 -8
-303 -6 -367 4 -153 24 -325 67 -554 140 -184 59 -273 84 -321 91 -16 3 -41 7
-55 10 -14 3 -70 7 -125 10 -55 3 -128 8 -162 10 -35 2 -63 1 -63 -3z"/>
</g>
</svg>
