<svg width="50" height="30" viewBox="0 0 50 30" fill="none" xmlns="http://www.w3.org/2000/svg">
<mask id="mask0_29_2143" style="mask-type:luminance" maskUnits="userSpaceOnUse" x="0" y="0" width="50" height="30">
<path d="M50 0H0V30H50V0Z" fill="white"/>
</mask>
<g mask="url(#mask0_29_2143)">
<path d="M50 0H0V30H50V0Z" fill="white"/>
<path d="M33.4775 10.8478L50.0001 1.33299V0H48.8678L30.021 10.8478H33.4775Z" fill="#BD0034"/>
<path d="M32.7026 19.7498L50 29.7089V27.7171L36.1591 19.7498H32.7026Z" fill="#BD0034"/>
<path d="M0 2.28284L14.7944 10.8477H18.2658L0 0.291016V2.28284Z" fill="#BD0034"/>
<path d="M17.4762 19.7498L0 29.8161V30H3.15852L20.9327 19.7498H17.4762Z" fill="#BD0034"/>
<path d="M46.5882 0H29.0674V10.0817L46.5882 0Z" fill="#1A237B"/>
<path d="M21.3497 0H3.90332L21.3497 10.0817V0Z" fill="#1A237B"/>
<path d="M50.0002 10.8477V3.96826L38.126 10.8477H50.0002Z" fill="#1A237B"/>
<path d="M50.0002 26.5526V19.7498H38.126L50.0002 26.5526Z" fill="#1A237B"/>
<path d="M4.90186 30H21.35V20.5159L4.90186 30Z" fill="#1A237B"/>
<path d="M29.0674 30H45.5751L29.0674 20.5159V30Z" fill="#1A237B"/>
<path d="M0 19.7498V26.8744L12.2914 19.7498H0Z" fill="#1A237B"/>
<path d="M0 10.8478H12.2914L0 3.72314V10.8478Z" fill="#1A237B"/>
<path d="M22.8844 0V12.6251H0V17.9724H22.8844V30H27.5328V17.9724H50V12.6251H27.5328V0H22.8844Z" fill="#BD0034"/>
</g>
</svg>
