<svg width="50" height="30" fill="none" xmlns="http://www.w3.org/2000/svg"><mask id="a" style="mask-type:luminance" maskUnits="userSpaceOnUse" x="0" y="0" width="50" height="30"><path d="M50 0H0v30h50V0z" fill="#fff"/></mask><g mask="url(#a)"><path d="M50 0H0v30h50V0z" fill="#fff"/><path d="M33.477 10.848L50 1.333V0h-1.132L30.02 10.848h3.456zm-.774 8.902L50 29.709v-1.992L36.16 19.75h-3.457zM0 2.283l14.794 8.565h3.472L0 .29v1.992zM17.476 19.75L0 29.816V30h3.159l17.774-10.25h-3.457z" fill="#BD0034"/><path d="M46.588 0h-17.52v10.082L46.587 0zM21.35 0H3.903L21.35 10.082V0zM50 10.848v-6.88l-11.874 6.88H50zm0 15.705V19.75H38.126L50 26.553zM4.902 30H21.35v-9.484L4.902 30zm24.165 0h16.508l-16.508-9.484V30zM0 19.75v7.124l12.291-7.124H0zm0-8.902h12.291L0 3.723v7.125z" fill="#1A237B"/><path d="M22.884 0v12.625H0v5.347h22.884V30h4.649V17.972H50v-5.347H27.533V0h-4.649z" fill="#BD0034"/></g></svg>