<svg width="50" height="30" fill="none" xmlns="http://www.w3.org/2000/svg"><mask id="a" style="mask-type:luminance" maskUnits="userSpaceOnUse" x="0" y="0" width="50" height="30"><path d="M50 0H0v30h50V0z" fill="#fff"/></mask><g mask="url(#a)"><path d="M50 27.69H0v2.307h50V27.69z" fill="#CB001C"/><path d="M50 25.384H0v2.306h50v-2.306z" fill="#fff"/><path d="M50 23.08H0v2.304h50V23.08z" fill="#CB001C"/><path d="M50 20.77H0v2.31h50v-2.31z" fill="#fff"/><path d="M50 18.46H0v2.307h50V18.46z" fill="#CB001C"/><path d="M50 16.153H0v2.307h50v-2.307z" fill="#fff"/><path d="M50 13.844H0v2.31h50v-2.31z" fill="#CB001C"/><path d="M50 11.54H0v2.304h50V11.54z" fill="#fff"/><path d="M50 9.233H0v2.307h50V9.233z" fill="#CB001C"/><path d="M50 6.926H0v2.307h50V6.926z" fill="#fff"/><path d="M50 4.614H0v2.31h50v-2.31z" fill="#CB001C"/><path d="M50 2.31H0v2.304h50V2.31z" fill="#fff"/><path d="M50 0H0v2.31h50V0z" fill="#CB001C"/><path d="M22.834 0H0v16.153h22.834V0z" fill="#2A3560"/><path d="M2.064 1.78l.193.614h.625l-.506.376.192.611-.504-.375-.507.375.198-.611-.506-.376h.62l.195-.614zm0 2.697l.193.611h.625l-.506.376.192.612-.504-.379-.507.379.198-.612-.506-.376h.62l.195-.611zm0 2.7l.193.606h.625l-.506.378.192.612-.504-.379-.507.379.198-.612-.506-.378h.62l.195-.606zm0 2.693l.193.61h.625l-.506.378.192.609-.504-.376-.507.376.198-.609-.506-.378h.62l.195-.61zm0 2.695l.193.615h.625l-.506.375.192.609-.504-.376-.507.376.198-.609-.506-.375h.62l.195-.615zM3.89 3.2l.185.613h.631l-.504.378.19.609-.501-.376-.504.376.19-.609-.505-.378h.626l.193-.612zm0 2.698l.185.609h.631l-.504.378.19.61-.501-.37-.504.37.19-.61-.505-.378h.626l.193-.609zm0 2.697l.185.612h.631l-.504.376.19.608-.501-.375-.504.375.19-.608-.505-.376h.626l.193-.612zm0 2.7l.185.609h.631l-.504.376.19.606-.501-.376-.504.376.19-.606-.505-.376h.626l.193-.609zM5.734 1.78l.195.614h.626l-.507.376.196.611-.51-.375-.501.375.192-.611-.507-.376h.623l.193-.614zm0 2.697l.195.611h.626l-.507.376.196.612-.51-.379-.501.379.192-.612-.507-.376h.623l.193-.611zm0 2.7l.195.606h.626l-.507.378.196.612-.51-.379-.501.379.192-.612-.507-.378h.623l.193-.606zm0 2.693l.195.61h.626l-.507.378.196.609-.51-.376-.501.376.192-.609-.507-.378h.623l.193-.61zm0 2.695l.195.615h.626l-.507.375.196.609-.51-.376-.501.376.192-.609-.507-.375h.623l.193-.615zM7.563 3.2l.19.613h.628l-.51.378.196.609-.504-.376-.504.376.195-.609-.51-.378h.626l.193-.612zm0 2.698l.19.609h.628l-.51.378.196.61-.504-.37-.504.37.195-.61-.51-.378h.626l.193-.609zm0 2.697l.19.612h.628l-.51.376.196.608-.504-.375-.504.375.195-.608-.51-.376h.626l.193-.612zm0 2.7l.19.609h.628l-.51.376.196.606-.504-.376-.504.376.195-.606-.51-.376h.626l.193-.609zM9.412 1.78l.196.614h.62l-.507.376.2.611-.509-.375-.507.375.193-.611-.501-.376h.623l.192-.614zm0 2.697l.196.611h.62l-.507.376.2.612-.509-.379-.507.379.193-.612-.501-.376h.623l.192-.611zm0 2.7l.196.606h.62l-.507.378.2.612-.509-.379-.507.379.193-.612-.501-.378h.623l.192-.606zm0 2.693l.196.61h.62l-.507.378.2.609-.509-.376-.507.376.193-.609-.501-.378h.623l.192-.61zm0 2.695l.196.615h.62l-.507.375.2.609-.509-.376-.507.376.193-.609-.501-.375h.623l.192-.615zM11.239 3.2l.192.613h.623l-.504.378.19.609-.501-.376-.504.376.19-.609-.505-.378h.623l.196-.612zm0 2.698l.192.609h.623l-.504.378.19.61-.501-.37-.504.37.19-.61-.505-.378h.623l.196-.609zm0 2.697l.192.612h.623l-.504.376.19.608-.501-.375-.504.375.19-.608-.505-.376h.623l.196-.612zm0 2.7l.192.609h.623l-.504.376.19.606-.501-.376-.504.376.19-.606-.505-.376h.623l.196-.609zm1.846-9.515l.192.614h.623l-.501.376.195.611-.51-.375-.5.375.19-.611-.505-.376h.623l.193-.614zm0 2.697l.192.611h.623l-.501.376.195.612-.51-.379-.5.379.19-.612-.505-.376h.623l.193-.611zm0 2.7l.192.606h.623l-.501.378.195.612-.51-.379-.5.379.19-.612-.505-.378h.623l.193-.606zm0 2.693l.192.61h.623l-.501.378.195.609-.51-.376-.5.376.19-.609-.505-.378h.623l.193-.61zm0 2.695l.192.615h.623l-.501.375.195.609-.51-.376-.5.376.19-.609-.505-.375h.623l.193-.615zM14.911 3.2l.193.613h.628l-.506.378.192.609-.507-.376-.504.376.196-.609-.507-.378h.626l.19-.612zm0 2.698l.193.609h.628l-.506.378.192.61-.507-.37-.504.37.196-.61-.507-.378h.626l.19-.609zm0 2.697l.193.612h.628l-.506.376.192.608-.507-.375-.504.375.196-.608-.507-.376h.626l.19-.612zm0 2.7l.193.609h.628l-.506.376.192.606-.507-.376-.504.376.196-.606-.507-.376h.626l.19-.609zM16.76 1.78l.196.614h.623l-.504.376.19.611-.505-.375-.498.375.187-.611-.504-.376h.623l.192-.614zm0 2.697l.196.611h.623l-.504.376.19.612-.505-.379-.498.379.187-.612-.504-.376h.623l.192-.611zm0 2.7l.196.606h.623l-.504.378.19.612-.505-.379-.498.379.187-.612-.504-.378h.623l.192-.606zm0 2.693l.196.61h.623l-.504.378.19.609-.505-.376-.498.376.187-.609-.504-.378h.623l.192-.61zm0 2.695l.196.615h.623l-.504.375.19.609-.505-.376-.498.376.187-.609-.504-.375h.623l.192-.615zM18.59 3.2l.186.613h.626l-.498.378.184.609-.499-.376-.51.376.196-.609-.501-.378h.62l.195-.612zm0 2.698l.186.609h.626l-.498.378.184.61-.499-.37-.51.37.196-.61-.501-.378h.62l.195-.609zm0 2.697l.186.612h.626l-.498.376.184.608-.499-.375-.51.375.196-.608-.501-.376h.62l.195-.612zm0 2.7l.186.609h.626l-.498.376.184.606-.499-.376-.51.376.196-.606-.501-.376h.62l.195-.609zm1.843-9.515l.198.614h.62l-.504.376.195.611-.51-.375-.5.375.19-.611-.505-.376h.623l.193-.614zm0 2.697l.198.611h.62l-.504.376.195.612-.51-.379-.5.379.19-.612-.505-.376h.623l.193-.611zm0 2.7l.198.606h.62l-.504.378.195.612-.51-.379-.5.379.19-.612-.505-.378h.623l.193-.606zm0 2.693l.198.61h.62l-.504.378.195.609-.51-.376-.5.376.19-.609-.505-.378h.623l.193-.61zm0 2.695l.198.615h.62l-.504.375.195.609-.51-.376-.5.376.19-.609-.505-.375h.623l.193-.615z" fill="#fff"/></g></svg>