<svg width="110" height="110" viewBox="0 0 110 110" fill="none" xmlns="http://www.w3.org/2000/svg">
<g filter="url(#filter0_d_32_2912)">
<path d="M3 102.998V3H103V102.998L95.3176 102.968V10.7125H10.7107V95.1317H41.1285C55.518 95.1317 67.6576 86.4844 73.5088 72.4027C79.174 58.7702 75.8194 35.226 65.2094 25.3384C81.0415 36.1526 92.6591 58.8026 82.8199 81.5477C77.0779 94.8282 65.0597 103 48.8331 103L3 102.998ZM36.9707 41.0832V79.571H26.7876V29.9595H33.7435C43.4613 29.9595 54.0855 31.0338 57.3531 42.374C52.8776 40.8647 48.6591 41.0832 43.8579 41.0832H36.9707Z" fill="#C5D8E6"/>
</g>
<defs>
<filter id="filter0_d_32_2912" x="0" y="0" width="110" height="110" filterUnits="userSpaceOnUse" color-interpolation-filters="sRGB">
<feFlood flood-opacity="0" result="BackgroundImageFix"/>
<feColorMatrix in="SourceAlpha" type="matrix" values="0 0 0 0 0 0 0 0 0 0 0 0 0 0 0 0 0 0 127 0" result="hardAlpha"/>
<feOffset dx="2" dy="2"/>
<feGaussianBlur stdDeviation="2.5"/>
<feComposite in2="hardAlpha" operator="out"/>
<feColorMatrix type="matrix" values="0 0 0 0 0.772549 0 0 0 0 0.847059 0 0 0 0 0.901961 0 0 0 1 0"/>
<feBlend mode="normal" in2="BackgroundImageFix" result="effect1_dropShadow_32_2912"/>
<feBlend mode="normal" in="SourceGraphic" in2="effect1_dropShadow_32_2912" result="shape"/>
</filter>
</defs>
</svg>
