<svg width="114" height="135" viewBox="0 0 114 135" fill="none" xmlns="http://www.w3.org/2000/svg">
<path d="M62 78.5C62.1774 78.5 63.4704 77.1774 63.5 77V78.5V132.011V133C63.5 132.793 62.2069 132 62 132L63.5 132.011L111.466 132.365L111.722 132.367L111.5 132.5C111.489 132.455 111.477 132.41 111.466 132.365C109.335 123.839 108.706 121.147 108.5 121H92.3159H92L92.2661 120.867L92.3159 121L95.5 129.5H82.9898L82.1459 126.652C82.1459 126.356 80.7866 122.757 76.5 107L104.843 106.743L105.143 106.74L104.877 106.873C104.866 106.832 104.854 106.789 104.843 106.743C104.505 105.423 103.844 102.055 103.987 102.055L75.3766 102C75.081 100.374 74.0934 99.4648 68.8364 81.6783V80.747H81C82.9216 88.4334 83.5296 86.5 83.5 86.5H101L97.5 78.5H63.5H62ZM62.0206 76H99C99.6799 76 101.068 76.8599 103.611 87L102 88.5L82.6293 88.6979C81.9789 88.6979 81.2371 89.7628 79.286 82.0765H71V81.5C76.2571 99.1979 77.1993 99.054 77.3766 100H104.877C105.409 100 106.79 105.428 107.5 108L106 109H79.5C83.491 123.752 84.2763 126.238 84.2763 126.652L84.5 127.5H93L89.9903 119.251L90.9659 118.763H109.601C110.281 119.295 111.605 123.892 114 133.5L112.5 134.461H62.0199C61.34 134.461 61 134.121 61 133.441V76.9758C61.0887 76.3254 61.4294 76 62.0206 76Z" fill="url(#paint0_linear_240_1912)"/>
<path d="M63.5 78.5V132.011L111.466 132.365C109.335 123.839 108.706 121.147 108.5 121H92.3159L95.5 129.5H82.9898L82.1459 126.652C82.1459 126.356 80.7866 122.757 76.5 107L104.843 106.743C104.505 105.423 103.844 102.055 103.987 102.055L75.3766 102C75.081 100.374 74.0934 99.4648 68.8364 81.6783V80.747H81C82.9216 88.4334 83.5296 86.5 83.5 86.5H101L97.5 78.5H63.5Z" fill="url(#paint1_linear_240_1912)"/>
<path d="M2.22215 2.89556C2.60819 2.89556 2.83337 2.70255 2.89771 2.31651L0.897712 2.89558V130.868L2.89771 131.543C2.89771 131.093 2.67253 130.868 2.22215 130.868H0.897712H50.1185H50.7941C50.3437 130.868 50.1185 131.093 50.1185 131.543V130.868V121.892C50.1185 120.155 45.4539 98.4296 36.1248 64.716H93.8627H96.4149L95.9324 65.0055C95.9094 64.9096 93.8862 64.8131 93.8627 64.716C91.9207 56.6618 88.534 48.1479 83.7025 31.1741C79.1987 12.3228 76.8504 2.89712 76.6573 2.89712L0.897712 2.89558L2.22215 2.89556ZM23.2862 9.07211C31.4573 39.8905 36.2183 53.5837 37.5695 58.1518H52.9822L37.7956 9.07304L23.2862 9.07211ZM2.22215 0H78.6565C80.3293 0 83.6428 10.1334 88.5969 30.4002C93.4867 47.5787 97.0253 56.9612 99.2128 66.5478L97.1862 67.6094H39.9827C48.6684 99.0711 53.0113 119.831 53.0113 121.89V131.541C53.0113 133.021 52.2714 133.761 50.7916 133.761H2.2197C0.739899 133.761 0 133.021 0 131.541V2.1236C0.193017 0.708144 0.935372 0 2.22215 0ZM19.6205 6.17655H37.9201L54.8441 61.0465H35.4479C33.7108 55.0629 28.4349 39.4398 19.6205 6.17655Z" fill="url(#paint2_linear_240_1912)"/>
<path fill-rule="evenodd" clip-rule="evenodd" d="M0.897712 2.89558V130.868H50.1185V121.892C50.1185 120.155 45.4539 98.4296 36.1248 64.716H93.8627C91.9207 56.6618 88.534 48.1479 83.7025 31.1741C79.1987 12.3228 76.8504 2.89712 76.6573 2.89712L0.897712 2.89558ZM37.9201 6.17655H19.6205C28.4349 39.4398 33.7108 55.0629 35.4479 61.0465H54.8441L37.9201 6.17655Z" fill="url(#paint3_linear_240_1912)"/>
<defs>
<linearGradient id="paint0_linear_240_1912" x1="119.651" y1="105.231" x2="53.7831" y2="105.231" gradientUnits="userSpaceOnUse">
<stop offset="0.0889102" stop-color="#496072"/>
<stop offset="1" stop-color="#567D9C"/>
</linearGradient>
<linearGradient id="paint1_linear_240_1912" x1="119.651" y1="105.231" x2="53.7831" y2="105.231" gradientUnits="userSpaceOnUse">
<stop offset="0.0889102" stop-color="#496072"/>
<stop offset="1" stop-color="#567D9C"/>
</linearGradient>
<linearGradient id="paint2_linear_240_1912" x1="109.792" y1="66.8805" x2="-13.5095" y2="66.8804" gradientUnits="userSpaceOnUse">
<stop offset="0.0889102" stop-color="#496072"/>
<stop offset="1" stop-color="#567D9C"/>
</linearGradient>
<linearGradient id="paint3_linear_240_1912" x1="109.792" y1="66.8805" x2="-13.5095" y2="66.8804" gradientUnits="userSpaceOnUse">
<stop offset="0.0889102" stop-color="#496072"/>
<stop offset="1" stop-color="#567D9C"/>
</linearGradient>
</defs>
</svg>
