<svg width="110" height="110" fill="none" xmlns="http://www.w3.org/2000/svg"><g filter="url(#filter0_d_32_2912)"><path d="M3 102.998V3h100v99.998l-7.682-.03V10.713H10.71v84.419h30.418c14.389 0 26.529-8.648 32.38-22.73 5.665-13.632 2.31-37.176-8.3-47.064 15.832 10.815 27.45 33.465 17.61 56.21C77.079 94.828 65.06 103 48.834 103L3 102.998zm33.97-61.915v38.488H26.789V29.96h6.955c9.718 0 20.343 1.074 23.61 12.414-4.475-1.51-8.694-1.29-13.495-1.29H36.97z" fill="#C5D8E6"/></g><defs><filter id="filter0_d_32_2912" x="0" y="0" width="110" height="110" filterUnits="userSpaceOnUse" color-interpolation-filters="sRGB"><feFlood flood-opacity="0" result="BackgroundImageFix"/><feColorMatrix in="SourceAlpha" values="0 0 0 0 0 0 0 0 0 0 0 0 0 0 0 0 0 0 127 0" result="hardAlpha"/><feOffset dx="2" dy="2"/><feGaussianBlur stdDeviation="2.5"/><feComposite in2="hardAlpha" operator="out"/><feColorMatrix values="0 0 0 0 0.772549 0 0 0 0 0.847059 0 0 0 0 0.901961 0 0 0 1 0"/><feBlend in2="BackgroundImageFix" result="effect1_dropShadow_32_2912"/><feBlend in="SourceGraphic" in2="effect1_dropShadow_32_2912" result="shape"/></filter></defs></svg>