<svg width="138" height="96" viewBox="0 0 138 96" fill="none" xmlns="http://www.w3.org/2000/svg">
<g clip-path="url(#clip0_305_1398)">
<path d="M64.4655 0.339348C57.1382 1.03525 48.282 4.39879 42.0509 8.80618C29.4156 17.737 22.3191 32.235 23.0114 47.5739C23.2422 52.0102 23.8191 55.6637 24.8 58.7953C25.1461 59.9551 25.4346 60.941 25.4058 60.941C25.2904 61.057 22.3191 61.144 17.0976 61.173C11.2993 61.202 11.0973 61.231 11.0973 61.7819C11.0973 62.3618 11.2993 62.3618 69.3408 62.3618C101.391 62.3618 127.671 62.2458 127.757 62.1298C127.815 62.0139 127.786 61.7239 127.671 61.5209C127.469 61.231 125.796 61.115 120.401 61.057C116.536 61.028 113.333 60.97 113.305 60.941C113.276 60.941 113.449 60.3611 113.68 59.6652C116.103 52.8801 116.507 42.3836 114.632 34.9606C112.324 25.8558 107.593 17.9399 100.929 12.0827C90.7746 3.20995 77.8797 -0.965472 64.4655 0.339348ZM73.7256 1.49919C84.832 2.63003 94.3228 7.09542 101.939 14.7794C105.747 18.6068 107.968 21.5934 110.189 25.8848C112.987 31.3071 115.064 38.7591 115.382 44.6163L115.526 47.1389L115.122 44.3843C113.016 29.8863 105.4 17.592 93.8901 10.082C88.2937 6.45751 81.8606 4.07983 75.2257 3.18096C71.9082 2.74602 63.6289 3.00698 60.7153 3.64489C54.1957 5.09469 47.4742 8.13928 42.5124 11.8798C31.5792 20.1436 25.1461 31.829 23.5307 46.414L23.2422 48.8787L23.3864 45.9791C23.7903 37.4252 26.4443 28.8134 30.6272 22.3473C39.945 8.02329 56.994 -0.240572 73.7256 1.49919ZM62.9077 19.7667C62.5039 20.2596 62.2154 20.7815 62.3019 20.9265C62.4173 21.0715 62.1577 21.6224 61.7538 22.1443C61.35 22.6953 61.0903 23.2172 61.1769 23.3042C61.2923 23.4202 61.2057 23.6811 61.0038 23.9421C60.773 24.2321 60.7442 24.377 60.9749 24.377C61.4942 24.377 61.3211 24.957 60.8018 24.986C60.3403 24.986 60.3403 25.015 60.8307 25.2179C61.2346 25.3629 61.2923 25.5079 61.0615 25.6529C60.8595 25.7689 60.773 26.0008 60.8595 26.1458C60.9749 26.2908 60.9461 26.5807 60.8307 26.7547C60.6865 26.9577 60.5711 27.3056 60.5422 27.5666C60.5134 27.7986 60.398 28.3205 60.2826 28.7264C60.1095 29.3934 60.1384 29.3934 60.6576 28.5815C62.3019 26.0588 64.0328 25.2179 67.9561 25.015C69.485 24.957 71.6197 25.0439 72.6871 25.2179C75.7161 25.7689 76.8123 26.4648 78.6874 29.0164C78.9759 29.4223 79.1201 29.5673 79.0336 29.3644C78.9182 29.1614 78.7162 28.6105 78.6009 28.1175C78.3701 27.3926 78.4278 27.2476 78.7739 27.3926C79.1201 27.5086 79.1201 27.4506 78.8893 26.9867C78.7451 26.6967 78.4566 26.3488 78.3124 26.2618C77.822 25.9718 77.9951 25.4499 78.5143 25.6529C78.9759 25.8268 78.9759 25.8268 78.5143 25.3049C78.2547 25.015 77.9951 24.377 77.9662 23.9131C77.9374 23.4492 77.6777 22.7243 77.3893 22.2893C77.1008 21.8834 76.87 21.3325 76.87 21.1005C76.87 20.8685 76.5815 20.3466 76.2642 19.9117C75.918 19.4767 75.6872 19.0708 75.7738 19.0128C75.9757 18.8098 78.4278 20.0566 79.149 20.6945C80.1009 21.5934 81.4568 24.522 81.6587 26.2328L81.8606 27.6536L82.4953 26.5517C83.4473 25.015 84.9185 23.5362 86.2455 22.8692C87.3129 22.2893 91.2938 21.7384 91.2938 22.1443C91.2938 22.2603 90.688 22.5213 89.938 22.7533C88.8995 23.0722 88.7264 23.1882 89.2745 23.2172L89.9957 23.2752L89.2168 23.5362C88.7264 23.7391 88.4956 23.9711 88.611 24.2611C88.6975 24.551 88.5533 24.667 88.0917 24.667C87.5436 24.667 87.4859 24.725 87.8033 24.928C88.1494 25.1599 88.0629 25.2469 87.4859 25.3919C86.9955 25.5369 86.7647 25.7399 86.8801 26.0008C86.9667 26.2618 86.8224 26.4068 86.4186 26.4068C86.0724 26.4068 85.8128 26.5227 85.8128 26.6967C85.8128 26.8417 85.957 26.9867 86.1012 26.9867C86.5917 26.9867 86.4186 27.7986 85.8993 28.1175C84.9473 28.6685 86.0724 28.4365 88.034 27.6826C90.6015 26.6677 94.5536 26.5517 96.3422 27.3926L97.4961 27.9725L96.6306 28.0595C95.7075 28.1755 94.4382 28.6974 94.1497 29.1034C94.0344 29.2484 93.6305 29.3934 93.2266 29.3934C92.8228 29.4223 92.5631 29.5383 92.6497 29.6543C92.7074 29.7993 92.3035 29.8863 91.7265 29.8863C91.0054 29.8863 90.7457 30.0023 90.89 30.2342C91.0342 30.4662 90.9477 30.4952 90.5726 30.3502C90.1111 30.1762 90.1111 30.2342 90.4572 30.6692C90.8323 31.1041 90.8034 31.1331 90.1976 30.9591C89.7072 30.8432 89.563 30.9011 89.6784 31.1911C89.7649 31.4521 89.5918 31.626 89.1879 31.713C88.8418 31.771 89.5341 31.829 90.7169 31.858C95.8518 31.945 99.025 34.2357 99.5443 38.2081C99.775 40.0929 99.3423 40.2669 98.7942 38.4981C98.5346 37.7442 98.3615 37.4542 98.275 37.7732C98.1307 38.4981 97.5826 38.4111 96.7749 37.5702C96.4287 37.1933 96.0248 36.9323 95.8806 37.0193C95.7652 37.0773 95.5344 36.9033 95.3613 36.6424C95.1883 36.3524 95.044 36.2944 95.044 36.4684C95.044 37.1353 94.5825 36.8743 94.0921 35.8885C93.6882 35.0766 93.6305 35.0476 93.6305 35.5985C93.6016 36.2074 93.0247 36.6134 93.0247 36.0334C93.0247 35.8885 92.8228 35.5405 92.592 35.2215C92.1881 34.6996 92.1881 34.6996 92.3612 35.3085C92.5343 36.0914 92.3612 36.1494 91.7554 35.5115C91.4958 35.2795 91.2938 35.1926 91.2938 35.3665C91.2938 35.8595 90.688 35.7435 90.2265 35.1636C89.9668 34.8156 89.8803 34.7866 89.9091 35.0766C89.9668 35.3665 89.6784 35.5405 89.0149 35.5985C87.3705 35.7435 87.6302 35.9754 89.4476 35.9754C92.4477 36.0044 94.9286 37.5992 96.4287 40.4698C97.0057 41.6007 97.1788 42.4706 97.2941 44.4423C97.3518 45.8631 97.3518 46.9939 97.2364 46.9939C97.0057 46.9939 95.9095 44.5003 95.9095 43.9204C95.9095 43.6304 95.8229 43.5144 95.7075 43.6304C95.5921 43.7174 95.3325 43.5144 95.1306 43.1665C94.9286 42.7895 94.7844 42.6735 94.7555 42.8475C94.7555 43.5144 94.1786 43.2534 94.1786 42.5575C94.1786 42.0646 94.1209 42.0066 93.8901 42.3546C93.6882 42.7025 93.6016 42.6735 93.4574 42.2096C92.8516 40.3828 92.6497 40.0059 92.4189 40.3828C92.2458 40.6728 92.1593 40.6438 92.015 40.2959C91.8131 39.7739 91.0054 39.6869 91.0054 40.1509C91.0054 40.3248 90.5438 39.9479 89.9957 39.31L88.986 38.1501L89.563 39.455C90.0822 40.6728 90.3419 42.3546 89.9668 42.3546C89.8803 42.3546 89.5053 41.9776 89.1014 41.5137C88.5245 40.8178 87.2552 40.1219 87.2552 40.4698C87.2552 40.5278 87.5725 41.0787 87.9763 41.6587C88.8418 42.9635 89.1014 44.2393 88.8995 46.385C88.7264 48.3857 88.2648 49.3716 86.7936 50.8214C85.5531 52.0682 84.9473 52.2712 85.6397 51.1984C85.8993 50.8214 86.1012 50.3575 86.1012 50.1835C86.1012 50.0095 86.4474 49.3426 86.8513 48.6757L87.6302 47.4579L86.8801 47.9508C85.3801 48.9367 85.0916 48.4437 86.3032 46.9649C86.9955 46.182 86.9955 46.0951 86.4474 46.443C86.1012 46.675 85.8128 46.9359 85.8128 47.0809C85.8128 47.1969 85.6685 47.2259 85.5243 47.1389C85.1781 46.9359 85.2935 44.0363 85.6974 43.0795C85.8993 42.4995 85.8993 42.4995 85.2935 43.0505C84.9185 43.3694 84.6589 43.4564 84.6589 43.2534C84.6589 42.7315 83.3896 40.9048 83.0145 40.9048C82.8415 40.9048 82.553 40.5568 82.4087 40.0929C82.2357 39.542 82.1203 40.7018 82.0049 44.3843C81.8318 49.7775 81.3414 52.3582 79.2644 58.5923L78.4566 61.057H76.6392C75.6295 61.086 74.7641 60.999 74.6776 60.883C74.6199 60.767 75.0526 59.9841 75.6295 59.1433C77.1008 56.9686 79.0336 52.7061 79.899 49.6906C80.7356 46.8779 81.1106 42.4416 80.7644 40.1509L80.5336 38.7301L80.0144 39.8899C79.7259 40.5278 79.4086 41.0208 79.2932 40.9628C79.149 40.9048 78.947 41.1657 78.8028 41.5427C78.5432 42.1806 78.5432 42.1806 78.3124 41.6297L78.0816 41.0497L77.8508 41.6297C77.4181 42.7025 76.3507 43.4564 76.6969 42.4126C76.7835 42.1516 76.6104 42.2676 76.2642 42.7315C75.9469 43.1665 75.5719 43.4564 75.4565 43.3984C75.3411 43.3114 74.8795 43.9783 74.4468 44.8772C73.841 46.1241 73.5814 46.414 73.3794 46.0951C73.2352 45.8631 73.1198 45.8051 73.1198 45.9791C73.091 46.1241 72.9179 46.9069 72.7159 47.6898L72.3409 49.1396L72.139 47.9218C72.0236 47.1099 72.1101 46.356 72.3698 45.6891C72.889 44.4713 72.7448 44.3553 72.139 45.4571C71.4178 46.762 71.6197 45.5151 72.3698 43.9493C72.7448 43.1375 73.466 42.0646 73.9852 41.5427C74.6487 40.9048 74.793 40.6148 74.4756 40.6148C74.1583 40.6148 74.0718 40.4408 74.1872 40.0929C74.3602 39.6289 74.3314 39.6289 73.7833 40.0929C73.466 40.3828 73.1198 40.6148 73.0333 40.6148C72.6005 40.6148 72.889 40.0349 73.9852 38.8171C75.1391 37.4832 76.5527 36.8743 78.5143 36.8163C79.2932 36.8163 79.2932 36.7873 78.6586 36.5554C78.3124 36.4104 77.8508 36.3234 77.6489 36.3814C76.4084 36.7873 75.6872 36.8453 75.8603 36.5554C75.9757 36.3524 75.6584 36.4394 75.168 36.7003C74.6776 36.9613 74.1295 37.0773 73.9564 36.9613C73.7833 36.8743 73.2063 37.1933 72.6871 37.7152C71.937 38.4691 71.6197 38.6141 71.3024 38.3531C71.0139 38.0922 70.9562 38.2371 71.0428 39.107C71.1582 40.0639 71.1293 40.1219 70.6966 39.7739C70.2927 39.426 70.235 39.513 70.2062 40.6438L70.1773 41.9196L69.9177 40.9628C69.7735 40.4698 69.5715 40.0349 69.485 40.0349C69.3985 40.0349 69.1677 40.4698 68.9369 40.9628L68.533 41.9196L68.5042 40.3828C68.5042 39.513 68.3599 38.875 68.1868 38.875C68.0426 38.875 67.9561 38.7591 68.0715 38.6141C68.158 38.4691 68.1003 38.2661 67.9272 38.1501C67.783 38.0632 67.6387 38.2081 67.6387 38.4981C67.6099 38.875 67.3791 38.7301 66.7445 37.9182C65.9656 36.9613 65.0136 36.3814 65.4752 37.1353C65.5617 37.2803 65.504 37.4252 65.3309 37.4252C65.1578 37.4252 64.9559 37.2223 64.8694 36.9903C64.754 36.7583 64.4655 36.5554 64.2059 36.5554C63.9462 36.5554 63.5712 36.4104 63.3693 36.2074C63.1674 36.0044 63.0231 35.9754 63.0231 36.1494C63.0231 36.2944 62.4173 36.3814 61.6673 36.3524L60.2826 36.2654L61.9558 36.6424C63.3116 36.9613 63.8885 37.3093 65.0425 38.4401C65.8502 39.223 66.4848 39.9479 66.4848 40.0639C66.4848 40.3828 64.379 40.3248 63.9174 39.9769C63.6578 39.8029 64.0328 40.2089 64.7251 40.9338C65.4175 41.6297 66.3118 42.8765 66.6579 43.6594C67.2637 44.9352 67.2926 45.3412 67.0906 46.9939C66.9464 48.0378 66.831 48.6757 66.8022 48.4147C66.7733 47.7768 65.5617 44.9352 65.4175 45.0802C65.3309 45.1382 65.4463 45.5151 65.6483 45.8921C65.9656 46.472 65.9367 46.501 65.5617 46.211C65.3309 46.0081 64.7828 45.1092 64.3501 44.2103C63.9174 43.3114 63.4847 42.6735 63.3693 42.7605C63.2827 42.8765 63.0231 42.5865 62.8212 42.1516L62.4462 41.3397L62.5904 42.2096L62.7346 43.0795L61.8692 42.0646C61.2634 41.3977 61.0326 41.2527 61.148 41.6297C61.35 42.2096 61.3211 42.2096 60.8884 41.6587C60.6288 41.3397 60.4268 40.9338 60.4268 40.7888C60.4268 40.6148 60.3114 40.6728 60.1384 40.9048C59.9364 41.2237 59.7056 40.9628 59.1575 39.7739L58.4363 38.2081L58.2056 39.049C57.744 40.7018 58.0325 46.414 58.6671 48.8497C59.5614 52.2712 61.2923 55.9247 63.4558 58.9983C64.0039 59.7522 64.4655 60.5061 64.4655 60.68C64.4655 60.825 63.6001 60.912 62.5327 60.854L60.6288 60.767L59.5325 57.7225C57.4844 51.9812 56.8786 48.8207 56.8497 44.0363C56.8209 41.6877 56.7632 39.9769 56.6766 40.2089C56.5901 40.4698 56.417 40.6438 56.3016 40.6438C55.6958 40.5858 55.5516 40.6728 55.3785 41.2237C55.2342 41.6877 55.09 41.7457 54.7727 41.4557C54.4265 41.1947 54.3688 41.2817 54.3688 42.0936V43.0795L53.6476 42.2096L52.9264 41.3397L53.0995 42.2096C53.2149 42.6735 53.388 43.3694 53.5322 43.6884C53.8207 44.5293 53.5322 44.7902 53.013 44.1523C52.6957 43.7754 52.7245 43.8624 53.0418 44.5583C53.2726 45.0512 53.4168 45.5441 53.3303 45.6021C53.2726 45.6891 53.1861 46.24 53.1572 46.82C53.1284 48.0378 52.9841 48.0668 51.9168 47.2549L51.1379 46.617L51.8879 48.1248C52.3206 48.9367 52.5803 49.7486 52.4937 49.8935C52.4072 50.0385 52.4649 50.2125 52.638 50.3285C52.9841 50.5314 53.5899 51.6333 53.3591 51.6333C53.2726 51.6333 52.6957 51.1404 52.0322 50.5604C50.2436 48.9367 49.6666 47.5739 49.5224 44.6453C49.407 42.3836 49.4647 41.9776 50.1859 40.3538C50.7052 39.223 51.4552 38.1791 52.1764 37.5412C52.8399 36.9613 53.0995 36.6134 52.811 36.7293C52.3783 36.9033 52.3206 36.8453 52.4937 36.5264C52.6957 36.2074 52.638 36.2074 52.2052 36.5554C51.7725 36.9033 51.6571 36.9033 51.5417 36.6134C51.4552 36.3234 51.311 36.3524 50.8783 36.7293C50.359 37.1933 50.3301 37.1933 50.3013 36.3814C50.2724 35.5405 50.2724 35.5405 49.9551 36.5554C49.5801 37.8602 49.4936 37.9472 49.1762 37.4252C48.9455 37.0773 48.8878 37.0773 48.8878 37.5412C48.8878 37.8602 48.7435 38.0052 48.4839 37.9182C48.2531 37.8312 47.9935 37.9762 47.8781 38.2371C47.705 38.6431 47.6473 38.6141 47.4165 38.0342C47.2434 37.6282 47.1281 36.8743 47.0992 36.3524C47.0704 35.2215 46.7819 35.1346 46.3492 36.1204C46.003 36.8743 45.426 37.1063 45.426 36.4974C45.426 36.2944 45.2241 36.4394 44.9356 36.8163C44.5029 37.4542 44.4452 37.4542 44.1279 37.0193C43.8106 36.5844 43.7529 36.6134 43.5798 37.1933C43.4356 37.5992 43.3202 37.7152 43.2048 37.4832C42.974 36.9033 42.6278 37.0773 42.2528 38.0052C42.0509 38.4691 41.7912 38.875 41.647 38.875C41.1854 38.875 40.2335 40.1509 40.2335 40.8178C40.2335 41.1947 40.0892 41.4847 39.9161 41.4847C39.2526 41.4847 39.8296 38.1212 40.7527 36.4684C42.4259 33.4528 46.5223 31.3651 50.1282 31.713C51.109 31.8 52.1475 31.974 52.436 32.061C52.7245 32.177 52.9264 32.119 52.9264 31.945C52.9264 31.771 52.4649 31.626 51.8879 31.626C51.2821 31.626 50.9359 31.5101 51.0513 31.3361C51.1379 31.1621 50.9071 31.0461 50.5032 31.0461C50.1282 31.0461 49.609 30.8432 49.3782 30.6112C49.1474 30.3792 48.8589 30.2922 48.7435 30.4082C48.5993 30.5242 48.5993 30.3792 48.7147 30.0603C48.8589 29.5963 48.8012 29.5383 48.0512 29.6833C47.3877 29.8283 47.2146 29.7703 47.33 29.4513C47.4454 29.1614 47.33 29.1034 46.8973 29.2194C46.0318 29.4513 44.6183 29.0454 45.1376 28.7264C45.3972 28.5815 45.051 28.4365 44.099 28.2915C42.022 28.0015 41.9932 27.9725 43.2625 27.3926C44.9068 26.6387 48.9743 26.6967 51.4841 27.5086C53.4745 28.1755 54.6861 28.3205 53.5611 27.7986C53.1572 27.5956 52.9841 27.3056 53.0707 27.0157C53.1572 26.7257 52.9264 26.3198 52.4937 26.0008C52.1187 25.7109 51.8591 25.3629 51.9456 25.2179C52.0322 25.0729 51.9745 24.957 51.8302 24.957C51.3687 24.957 49.2916 22.7243 49.407 22.3763C49.4647 22.2023 49.1762 22.0574 48.7147 22.0574C48.2243 22.0574 48.0223 21.9414 48.1954 21.7964C48.3397 21.6514 49.2628 21.6514 50.2436 21.7674C53.388 22.1733 55.4939 23.8551 57.2824 27.4216C57.744 28.3785 58.0325 28.8424 57.9171 28.4365C56.9363 25.3919 58.8691 21.0425 61.8692 19.4187C63.3981 18.6068 63.7732 18.7228 62.9077 19.7667Z" fill="url(#paint0_linear_305_1398)"/>
<path d="M67.783 26.3199C67.4657 26.4069 67.1483 26.5808 67.0618 26.6968C66.9752 26.8128 66.3694 27.1898 65.6771 27.5377C64.4078 28.1756 63.2539 29.1615 63.4847 29.3935C63.5712 29.4514 63.225 29.6834 62.7635 29.8864C62.3019 30.0604 61.8404 30.4083 61.7538 30.6403C61.5519 31.1622 61.5519 31.1622 62.9077 30.5533C64.4655 29.8574 74.0141 29.8574 76.0911 30.5533C77.7066 31.0752 77.822 30.8723 76.4373 29.9444C75.8892 29.5964 75.4276 29.1615 75.4276 29.0165C75.4276 28.8425 75.2257 28.7265 74.9949 28.7265C74.793 28.7265 74.4756 28.5526 74.3602 28.3496C74.2449 28.1466 73.8121 27.8277 73.4083 27.6247C73.0044 27.4217 72.3121 27.0448 71.8216 26.7838C70.9274 26.2909 68.7638 26.0299 67.783 26.3199Z" fill="url(#paint1_linear_305_1398)"/>
<path d="M80.9375 29.6252C80.7644 30.1471 80.6202 30.698 80.649 30.872C80.649 31.046 80.851 30.669 81.0818 30.0601C81.3125 29.4222 81.4279 28.8713 81.3702 28.8133C81.3125 28.7553 81.1106 29.1032 80.9375 29.6252Z" fill="url(#paint2_linear_305_1398)"/>
<path d="M58.1479 29.5962C58.1479 29.8282 58.2632 30.2921 58.4075 30.6111C58.5517 30.988 58.6671 31.017 58.6671 30.7561C58.6671 30.5241 58.5517 30.0601 58.4075 29.7412C58.2632 29.3642 58.1479 29.3352 58.1479 29.5962Z" fill="url(#paint3_linear_305_1398)"/>
<path d="M67.0618 32.3221C67.0618 32.4381 66.7445 32.4961 66.3406 32.4381C65.9656 32.3511 65.6771 32.4091 65.7059 32.5831C65.7348 32.7281 65.3021 32.989 64.754 33.134C63.3693 33.511 62.9943 33.9459 64.0616 33.9459C65.1578 33.9749 67.0618 34.8448 68.4753 35.9756L69.6004 36.8745L71.4755 35.5987C72.7448 34.7288 73.7833 34.2359 74.7353 34.0909L76.1488 33.8879L75.168 33.482C74.6487 33.25 73.8987 33.076 73.4948 33.076C73.1198 33.076 72.8602 32.96 72.9756 32.8151C73.0621 32.6411 72.7159 32.4381 72.1967 32.3511C70.6389 32.0612 67.0618 32.0322 67.0618 32.3221Z" fill="url(#paint4_linear_305_1398)"/>
<path d="M84.2261 33.8296L83.3607 34.5835L84.3127 33.9456C84.8031 33.5976 85.2358 33.2787 85.2358 33.1917C85.2358 32.9887 85.1204 33.0467 84.2261 33.8296Z" fill="url(#paint5_linear_305_1398)"/>
<path d="M55.667 34.2355C55.9554 34.5545 56.2439 34.8154 56.3016 34.8154C56.3593 34.8154 56.2439 34.5545 56.042 34.2355C55.84 33.9166 55.5516 33.6556 55.4073 33.6556C55.2631 33.6556 55.3785 33.9166 55.667 34.2355Z" fill="url(#paint6_linear_305_1398)"/>
<path d="M64.754 39.7447C64.754 39.8897 64.8982 40.0347 65.0713 40.0347C65.2155 40.0347 65.2732 39.8897 65.1867 39.7447C65.1002 39.5707 64.9559 39.4547 64.8694 39.4547C64.8117 39.4547 64.754 39.5707 64.754 39.7447Z" fill="url(#paint7_linear_305_1398)"/>
<path d="M66.5425 45.2832C66.7156 45.7472 66.8887 46.0951 66.9464 46.0371C67.0906 45.8922 66.5714 44.3844 66.3695 44.3844C66.2829 44.3844 66.3695 44.7903 66.5425 45.2832Z" fill="url(#paint8_linear_305_1398)"/>
<path d="M3.04882 66.4213C4.4912 69.3209 5.73165 71.6116 5.78935 71.5536C5.84705 71.4956 5.12585 69.4369 4.17388 67.0012C3.22191 64.5656 2.47187 62.5358 2.52956 62.4779C2.58726 62.4199 3.71232 62.2749 5.06816 62.1589C6.424 62.0139 7.46251 61.8109 7.43367 61.637C7.37597 61.463 5.87589 61.318 3.85656 61.26L0.394836 61.173L3.04882 66.4213Z" fill="url(#paint9_linear_305_1398)"/>
<path d="M131.161 61.5497C131.248 61.7816 132.2 62.0136 133.585 62.1876C134.825 62.3326 135.921 62.4776 135.979 62.5355C136.037 62.5935 135.892 63.1445 135.633 63.7244C134.565 66.305 132.834 71.1474 132.95 71.2633C133.008 71.3213 133.988 69.4366 135.142 67.0879C136.296 64.7392 137.421 62.4486 137.652 61.9846L138.056 61.2017H134.536C131.882 61.2017 131.075 61.2887 131.161 61.5497Z" fill="url(#paint10_linear_305_1398)"/>
<path d="M6.19321 64.8556C6.19321 65.1165 6.62593 66.3054 7.17403 67.5232C8.61642 70.8867 8.93374 72.5105 8.93374 76.57C8.90489 80.9194 8.35679 83.616 6.82786 86.7476L5.7605 88.9803L29.8483 89.1252C45.7145 89.2412 54.4842 89.3862 55.5227 89.6182C56.3881 89.7921 58.8113 90.517 60.8595 91.213C67.6676 93.5326 71.7928 93.5616 78.3989 91.3289C84.7165 89.1832 83.1299 89.2992 109.324 89.1252L132.979 88.9803L131.882 86.7476C129.027 80.8904 128.853 73.9603 131.421 66.8853C131.882 65.6095 132.257 64.5366 132.257 64.4786C132.257 64.4206 103.9 64.3916 69.2254 64.3916C11.8474 64.3916 6.19321 64.4206 6.19321 64.8556ZM18.8862 73.0904C20.1555 73.7284 20.5882 74.7432 20.0689 75.7871C19.8093 76.338 19.7805 76.251 19.8959 75.2651C20.0401 74.1343 20.0401 74.1343 19.7516 75.0332C19.3766 76.251 18.4535 76.8599 17.0688 76.8599H15.9437L16.0591 78.5997L16.1745 80.3394H14.761C13.3763 80.3394 13.3186 80.3104 13.809 79.7885C14.3859 79.1506 14.3859 76.8599 13.7801 76.8599C13.5782 76.8599 13.4051 77.0049 13.4051 77.1789C13.4051 77.3239 13.2609 77.3819 13.1167 77.2949C12.7128 77.0339 13.3186 76.28 13.8667 76.28C14.4436 76.28 14.4148 73.5544 13.809 72.9745C13.059 72.2206 17.3861 72.3075 18.8862 73.0904ZM25.9539 73.2934C25.8096 74.0473 25.8096 74.0473 26.0693 73.4384C26.2423 73.0904 26.4443 72.8005 26.5308 72.8005C26.6462 72.8005 26.6174 72.9455 26.502 73.1194C26.1846 73.6414 26.9924 75.6711 27.4251 75.4971C27.6847 75.4101 27.829 75.5551 27.829 75.8741C27.829 76.338 27.8867 76.367 28.1174 75.99C28.3194 75.6711 28.4059 75.6711 28.4059 75.932C28.4059 76.135 28.1174 76.425 27.7713 76.599C27.1366 76.8599 27.1655 76.8599 27.9155 76.7729C28.3482 76.6859 28.6944 76.7729 28.6944 76.8889C28.6944 77.0339 28.4925 77.1499 28.2328 77.1499C27.8867 77.1499 27.8578 77.2949 28.002 77.7878C28.1463 78.1647 28.2328 78.7447 28.2617 79.0926C28.2617 79.4116 28.3482 79.6435 28.4348 79.5855C28.5213 79.5276 28.9252 79.8175 29.2713 80.1945L29.9348 80.9194L28.0886 80.8614L26.2423 80.8324L27.829 80.6294L29.4156 80.4264L27.7136 80.3974C26.3 80.3394 26.0693 80.2815 26.3577 79.9335C26.6462 79.6145 26.6174 79.3246 26.2423 78.6287C25.7231 77.5848 25.7231 77.5848 25.2038 78.2227C24.8288 78.7157 24.8288 78.7157 25.3481 78.3097C25.8673 77.9038 25.8962 77.9038 25.4923 78.5417L25.0884 79.2086L24.1653 78.1937C23.271 77.2369 22.8672 77.2949 22.9537 78.3967C22.9537 78.5997 23.0691 78.4837 23.1845 78.1647C23.3576 77.7588 23.4153 78.0198 23.3864 78.9476L23.3576 80.3394H21.944H20.5017L21.2517 79.5276C21.944 78.8027 22.6364 77.4978 22.6364 76.8599C22.6364 76.7149 22.4344 76.57 22.1748 76.512C21.7709 76.425 21.7998 76.309 22.3479 75.7001C22.6941 75.2941 22.8672 75.1492 22.7518 75.3811C22.6075 75.6711 22.6652 75.7291 22.896 75.5551C23.0979 75.4391 23.473 74.8882 23.7037 74.3373C24.0211 73.5544 24.0211 73.2354 23.7614 72.9165C23.473 72.5685 23.646 72.5105 24.7711 72.5105C26.0693 72.5105 26.0981 72.5395 25.9539 73.2934ZM35.9928 73.0904C36.4256 73.4384 36.8583 73.6704 36.9737 73.6124C37.0891 73.5544 37.2333 73.9603 37.291 74.4533C37.3487 75.1782 37.2044 75.5841 36.5698 76.193C36.1371 76.657 35.8198 77.2079 35.8486 77.4398C35.9063 77.7298 35.7909 77.6718 35.589 77.3239C35.3294 76.8889 35.3582 76.7149 35.7044 76.512C36.6563 75.99 37.0602 75.3521 37.0314 74.4533L36.9737 73.5254L36.8583 74.3953C36.8006 74.9172 36.3679 75.5841 35.8486 76.048L34.9543 76.8309L35.5024 77.8748C35.7909 78.4547 36.3679 79.2086 36.7717 79.5566L37.4929 80.1945L36.8871 79.4696C35.7332 78.1068 35.8198 77.8748 36.9737 79.1796L38.1564 80.4844L38.7911 79.9045C39.4257 79.3246 40.5219 77.4108 40.5219 76.8889C40.5219 76.7439 40.32 76.57 40.0604 76.512C39.6565 76.425 39.6853 76.309 40.2335 75.7001C40.5796 75.2941 40.7527 75.1492 40.6373 75.3811C40.4931 75.6421 40.5508 75.7291 40.7816 75.5841C40.9546 75.4681 41.3008 74.9172 41.5316 74.3373C41.8778 73.5254 41.8778 73.2064 41.6181 72.8875C41.3297 72.5395 41.5316 72.4815 42.8586 72.5685C43.9548 72.6265 44.3875 72.7715 44.3298 73.0324C44.1856 73.8153 44.9068 75.6421 45.3106 75.4971C45.5703 75.4101 45.7145 75.5551 45.7145 75.8741C45.7145 76.338 45.7722 76.367 46.003 75.99C46.2049 75.6711 46.2915 75.6711 46.2915 75.932C46.2915 76.135 46.003 76.425 45.6568 76.599C45.0222 76.8599 45.051 76.8599 45.8011 76.7729C46.2338 76.6859 46.5799 76.7729 46.5799 76.8889C46.5799 77.0339 46.378 77.1499 46.1184 77.1499C45.7722 77.1499 45.7434 77.2949 45.8876 77.7878C46.0318 78.1647 46.1184 78.7447 46.1472 79.0926C46.1472 79.4116 46.2338 79.6435 46.3203 79.5855C46.4069 79.5276 46.8107 79.8175 47.1569 80.1945L47.8204 80.9194L45.9741 80.8614L44.1279 80.8324L45.7145 80.6294L47.3011 80.4264L45.5991 80.3974C44.1856 80.3394 43.9548 80.2815 44.2433 79.9335C44.7625 79.2956 43.8394 77.5558 43.2336 78.0488C43.0028 78.2227 42.8297 78.4547 42.8297 78.5127C42.8297 78.5997 43.0317 78.4837 43.3202 78.2807C43.7529 77.9038 43.7529 77.9328 43.3778 78.5417L42.974 79.2086L42.0509 78.1937C41.1566 77.2369 40.7527 77.2949 40.8393 78.3967C40.8393 78.5997 40.9546 78.4837 41.07 78.1647C41.2431 77.7588 41.3008 78.0198 41.272 78.9476L41.2431 80.3394L39.8007 80.3974C38.3872 80.4264 38.3872 80.4554 40.2335 80.6294L42.1086 80.8324H39.945C38.4737 80.8324 37.4352 81.0064 36.8294 81.3253C35.7044 81.9052 35.4447 81.7892 35.1851 80.5424C35.0986 80.0495 34.8101 79.0056 34.5505 78.2227C34.2043 77.1209 34.0024 76.8599 33.4543 76.8599C32.8485 76.8599 32.8196 76.9469 32.935 78.2227C33.0215 79.0636 33.3389 79.8755 33.685 80.2525L34.262 80.9194L32.4157 80.8614L30.5695 80.8324L32.1561 80.6294L33.7427 80.4264L32.185 80.3974C30.9445 80.3394 30.6849 80.2525 30.9445 79.9915C31.4349 79.4986 31.3772 77.8168 30.858 77.6138C30.6272 77.5268 30.4252 77.2659 30.4252 77.0049C30.4252 76.7729 30.6272 76.57 30.858 76.57C31.4061 76.57 31.4638 73.8153 30.9445 73.4964C30.3676 73.1484 32.1273 72.5395 33.7716 72.5105C34.8389 72.5105 35.4736 72.6845 35.9928 73.0904ZM53.4168 73.2354C54.0803 73.6414 54.6573 74.0473 54.6573 74.1343C54.6573 74.2213 54.5419 74.2213 54.3977 74.1343C54.2534 74.0183 54.1957 74.2213 54.2823 74.5692C54.3977 75.0042 54.513 75.0622 54.6861 74.8012C55.0035 74.2503 55.3208 76.338 55.09 77.4978C54.513 80.1365 53.3014 80.9484 50.1282 80.8614L48.1666 80.8324L50.0417 80.6294L51.9168 80.4264L49.9263 80.3974C48.0223 80.3394 47.9646 80.3104 48.3973 79.8175C48.7724 79.3826 48.8878 78.6867 48.8878 76.454C48.8878 74.9172 48.7435 73.3804 48.5993 73.0614C48.3108 72.5395 48.3973 72.5105 50.2147 72.5105C51.7725 72.5105 52.4072 72.6555 53.4168 73.2354ZM58.5517 72.7715C58.6383 72.9165 58.5806 73.1194 58.4075 73.2354C57.9748 73.4964 58.0325 79.5566 58.4652 79.9915C58.7248 80.2525 58.4363 80.3394 57.0805 80.3394C55.7823 80.3104 55.4939 80.2525 55.8977 80.0205C56.6189 79.6145 56.6189 73.8443 55.8977 73.0324C55.465 72.5395 55.4939 72.5105 56.9074 72.5105C57.7151 72.5105 58.4363 72.6265 58.5517 72.7715ZM65.504 72.8875C65.5905 72.9745 65.4463 73.4384 65.1867 73.9603L64.7251 74.8592L63.8308 74.1053C62.6769 73.1194 61.725 73.2354 61.725 74.3373C61.7538 75.0912 61.725 75.1202 61.3788 74.6562C61.0326 74.1633 61.0038 74.1633 61.0038 74.6272C61.0038 75.1782 61.6384 75.4971 63.4847 75.99C64.1482 76.135 64.8405 76.483 65.0424 76.7149C65.2444 76.9469 65.4752 77.0919 65.5905 77.0339C65.7059 76.9469 65.7636 77.3819 65.7059 77.9618C65.6482 79.0056 65.6482 79.0056 65.879 78.1647L66.1387 77.2949L66.1675 78.1068C66.254 80.1655 64.7251 81.0643 61.6096 80.8034C60.4268 80.7164 59.3883 80.5714 59.3306 80.4844C59.2441 80.3974 59.4171 79.8175 59.7345 79.1506C60.0229 78.4837 60.3114 78.1068 60.3691 78.2807C60.4268 78.4547 60.6287 78.5127 60.8018 78.3967C61.0038 78.2807 61.0326 78.3967 60.9172 78.7157C60.8018 78.9766 60.8307 79.1506 60.9749 79.0636C61.0903 78.9766 61.4365 79.1506 61.725 79.4696C62.3308 80.1365 63.2539 80.2235 64.0039 79.6725C65.0136 78.9476 64.4655 78.1937 62.4462 77.5558C60.8595 77.0629 60.4845 76.8019 60.0518 75.961C59.446 74.8012 59.6191 73.7573 60.4845 73.0035C61.0038 72.5685 61.4942 72.4815 63.225 72.5975C64.3789 72.6555 65.4175 72.8005 65.504 72.8875ZM73.264 72.7715C73.3506 72.9455 73.1486 73.4964 72.8313 74.0183C72.514 74.5402 72.2544 74.8302 72.2544 74.6562C72.2544 74.2503 70.9851 73.6704 70.0908 73.6704C69.4561 73.6704 69.3696 73.8153 69.3696 74.6852C69.3696 75.8451 69.8023 75.99 70.9562 75.2361L71.6774 74.7722V76.28C71.6774 77.6428 71.6486 77.7298 71.2158 77.3239C70.9851 77.0629 70.4658 76.8599 70.0619 76.8599C69.4273 76.8599 69.3696 76.9759 69.3696 78.3387V79.8175L70.2927 79.6435C70.812 79.5566 71.4755 79.2086 71.8216 78.9186C72.3986 78.3677 72.3986 78.3677 72.8602 79.3536L73.3217 80.3394H70.0042C67.4079 80.3394 66.7445 80.2525 67.0041 79.9915C67.206 79.7885 67.3503 79.0346 67.3503 78.2517C67.3503 77.0629 67.2637 76.8889 66.8598 77.0339C66.4271 77.1789 66.4271 77.1209 66.9175 76.7149C67.4945 76.222 67.4945 76.222 66.7733 76.396L66.0521 76.599L66.7156 76.019C67.4368 75.3811 67.6099 73.4674 67.0041 72.8585C66.7445 72.5975 67.3791 72.5105 69.86 72.5105C71.6486 72.5105 73.1486 72.6265 73.264 72.7715ZM84.5146 72.7715C84.6012 72.9455 84.3992 73.4964 84.0819 74.0183C83.7646 74.5402 83.5049 74.8302 83.5049 74.6562C83.5049 74.2503 82.2356 73.6704 81.3414 73.6704C80.7067 73.6704 80.6202 73.8153 80.6202 74.6852C80.6202 75.8451 81.0529 75.99 82.2068 75.2361L82.928 74.7722V76.28C82.928 77.6428 82.8991 77.7298 82.4664 77.3239C82.2356 77.0629 81.7164 76.8599 81.3125 76.8599C80.6779 76.8599 80.6202 76.9759 80.6202 78.3387V79.8175L81.5433 79.6435C82.0626 79.5566 82.7261 79.2086 83.0722 78.9186C83.6492 78.3677 83.6492 78.3677 84.1107 79.3536L84.5723 80.3394H81.2548C78.6585 80.3394 77.995 80.2525 78.2547 79.9915C78.4566 79.7885 78.6008 79.0346 78.6008 78.2517C78.6008 77.0629 78.5143 76.8889 78.1104 77.0339C77.6777 77.1789 77.6777 77.1209 78.1681 76.7149C78.7451 76.222 78.7451 76.222 78.0239 76.396L77.3027 76.599L77.9662 76.019C78.6874 75.3811 78.8605 73.4674 78.2547 72.8585C77.995 72.5975 78.6297 72.5105 81.1106 72.5105C82.8991 72.5105 84.3992 72.6265 84.5146 72.7715ZM91.4381 72.8585C91.5534 72.9455 91.4092 73.4384 91.1496 73.9603L90.688 74.8592L89.7937 74.1053C88.6398 73.1194 87.6879 73.2354 87.6879 74.3373C87.7167 75.0912 87.6879 75.1202 87.3417 74.6562C86.9955 74.1633 86.9667 74.1633 86.9667 74.6272C86.9667 75.1782 87.6013 75.4971 89.4476 75.99C90.1111 76.135 90.8034 76.483 91.0053 76.7149C91.2073 76.9469 91.4381 77.0919 91.5534 77.0339C91.6688 76.9469 91.7265 77.3819 91.6688 77.9618C91.6111 79.0056 91.6111 79.0056 91.8419 78.1647L92.1015 77.2949L92.1304 78.1068C92.1304 78.5707 92.015 79.1796 91.8708 79.4986C91.2361 80.6874 90.313 80.8324 84.0819 80.8324C80.8221 80.8034 79.6105 80.7454 81.3414 80.7164C85.2935 80.6004 85.5243 80.5424 84.6877 79.6725C84.3704 79.2956 84.0819 78.8896 84.0819 78.7447C84.0819 78.5997 84.2838 78.7737 84.5435 79.1216C85.1204 79.9915 85.38 79.9335 85.8416 78.8317C86.0435 78.3387 86.2743 78.0778 86.332 78.2517C86.3897 78.4547 86.5916 78.5127 86.7647 78.3967C86.9667 78.2807 86.9955 78.3967 86.8801 78.7157C86.7647 78.9766 86.7936 79.1506 86.9378 79.0636C87.0532 78.9766 87.3994 79.1506 87.6879 79.4696C88.2937 80.1365 89.2168 80.2235 89.9668 79.6725C90.9765 78.9476 90.4284 78.2227 88.409 77.5558C86.8224 77.0629 86.4474 76.8019 86.0435 75.961C85.4377 74.8012 85.6108 73.7284 86.4763 73.0035C86.9955 72.5975 87.5436 72.5105 89.1879 72.5975C90.3418 72.6555 91.3515 72.7715 91.4381 72.8585ZM99.5154 72.8005C99.6885 73.0614 98.9096 74.8302 98.6211 74.8302C98.5634 74.8302 98.7077 74.4243 98.9384 73.9313C99.5442 72.8005 99.2846 72.4525 98.6788 73.5834C98.448 74.0183 98.2461 74.2503 98.2173 74.1053C98.2173 73.9313 97.8711 73.7573 97.4672 73.7284L96.7172 73.6704L96.8326 77.0049L96.9191 80.3394H95.5056C94.3805 80.3394 94.1497 80.2525 94.4094 79.9915C94.6401 79.7595 94.7555 78.5997 94.7555 76.657C94.7555 74.2503 94.669 73.6704 94.3517 73.6704C94.1209 73.6704 93.7459 73.8443 93.5151 74.0763C93.0247 74.5692 92.7073 74.3663 92.2458 73.2934L91.8708 72.5105H95.621C97.698 72.5105 99.4 72.6265 99.5154 72.8005ZM105.775 73.0324C105.631 73.8153 106.352 75.6421 106.756 75.4971C107.016 75.4101 107.16 75.5551 107.16 75.8741C107.16 76.338 107.218 76.367 107.449 75.99C107.65 75.6711 107.737 75.6711 107.737 75.932C107.737 76.135 107.449 76.425 107.102 76.599C106.468 76.8599 106.497 76.8599 107.247 76.7729C107.679 76.6859 108.025 76.7729 108.025 76.8889C108.025 77.0339 107.824 77.1499 107.564 77.1499C107.218 77.1499 107.189 77.2949 107.333 77.7878C107.477 78.1647 107.564 78.7447 107.593 79.0926C107.593 79.4116 107.679 79.6435 107.766 79.5855C107.852 79.5276 108.256 79.8175 108.602 80.1945L109.266 80.9194L107.42 80.8614L105.573 80.8324L107.16 80.6294L108.747 80.4264L107.045 80.3974C105.66 80.3394 105.429 80.2815 105.689 79.9335C106.035 79.5276 105.718 78.2227 105.198 77.9038C104.795 77.6718 104.189 78.5127 104.419 78.9476C104.535 79.1506 104.16 78.8317 103.612 78.2517C102.804 77.3819 102.573 77.2369 102.429 77.6138C102.342 77.8748 102.256 78.2227 102.285 78.3967C102.285 78.5997 102.4 78.4837 102.516 78.1647C102.689 77.7588 102.746 78.0198 102.717 78.9476L102.689 80.3394H101.275H99.8616L100.439 79.6725C101.073 78.9766 101.967 77.3529 101.967 76.8889C101.967 76.7439 101.766 76.57 101.506 76.512C101.102 76.425 101.131 76.309 101.679 75.7001C102.025 75.2941 102.198 75.1492 102.083 75.3811C101.939 75.6711 101.996 75.7291 102.227 75.5551C102.429 75.4391 102.804 74.8882 103.035 74.3373C103.352 73.5254 103.352 73.2354 103.093 72.9165C102.775 72.5395 102.948 72.4815 104.304 72.5685C105.4 72.6265 105.833 72.7715 105.775 73.0324ZM116.536 72.8005C116.709 73.0614 115.93 74.8302 115.641 74.8302C115.584 74.8302 115.699 74.4533 115.959 73.9603C116.564 72.7715 116.507 72.4815 115.814 73.5254C115.497 73.9893 115.237 74.2503 115.237 74.1053C115.237 73.9313 114.891 73.7573 114.487 73.7284L113.737 73.6704L113.853 77.0049L113.939 80.3394H112.526C111.401 80.3394 111.17 80.2525 111.429 79.9915C111.66 79.7595 111.776 78.5997 111.776 76.657C111.776 74.2503 111.689 73.6704 111.372 73.6704C111.141 73.6704 110.766 73.8443 110.535 74.0763C110.045 74.5692 109.727 74.3663 109.266 73.2934L108.891 72.5105H112.641C114.718 72.5105 116.42 72.6265 116.536 72.8005ZM123.747 72.7715C123.834 72.9455 123.632 73.4964 123.315 74.0183C122.997 74.5402 122.738 74.8302 122.738 74.6562C122.738 74.2503 121.468 73.6704 120.574 73.6704C119.94 73.6704 119.853 73.8153 119.853 74.6852C119.853 75.8451 120.286 75.99 121.44 75.2361L122.161 74.7722V76.28C122.161 77.6428 122.132 77.7298 121.699 77.3239C121.468 77.0629 120.949 76.8599 120.545 76.8599C119.911 76.8599 119.853 76.9759 119.853 78.3387V79.8175L120.776 79.6435C121.295 79.5566 121.959 79.2086 122.305 78.9186C122.882 78.3677 122.882 78.3677 123.344 79.3536L123.805 80.3394H120.488C117.891 80.3394 117.228 80.2525 117.487 79.9915C117.689 79.7885 117.834 79.0346 117.834 78.2517C117.834 77.0629 117.747 76.8889 117.343 77.0339C116.911 77.1789 116.911 77.1209 117.401 76.7149C117.978 76.222 117.978 76.222 117.257 76.396L116.536 76.599L117.199 76.019C117.92 75.3811 118.093 73.4674 117.487 72.8585C117.228 72.5975 117.863 72.5105 120.343 72.5105C122.132 72.5105 123.632 72.6265 123.747 72.7715ZM33.8004 77.3239C33.7139 77.4108 33.4543 77.4398 33.2523 77.3529C33.0215 77.2659 33.1081 77.1789 33.4254 77.1789C33.7427 77.1499 33.9158 77.2369 33.8004 77.3239ZM74.1295 80.6294C74.0141 80.8034 72.5717 80.8904 70.437 80.8614L66.9175 80.8034L70.0908 80.7164C74.0429 80.6004 74.2737 80.5424 73.4371 79.6725C73.1198 79.2956 72.8313 78.8896 72.8313 78.7737C72.8313 78.6577 73.1775 78.9476 73.5813 79.4406C73.9852 79.9335 74.2448 80.4554 74.1295 80.6294ZM124.613 80.6294C124.497 80.8034 123.055 80.8904 120.92 80.8614L117.401 80.8034L120.574 80.7164C124.526 80.6004 124.757 80.5424 123.921 79.6725C123.603 79.2956 123.315 78.8896 123.315 78.7737C123.315 78.6577 123.661 78.9476 124.065 79.4406C124.469 79.9335 124.728 80.4554 124.613 80.6294ZM16.7226 80.6294C16.838 80.8034 16.2899 80.8904 15.2225 80.8614L13.5494 80.8324L14.9917 80.6294C15.7995 80.5134 16.463 80.3974 16.4918 80.3974C16.5207 80.3684 16.6361 80.4554 16.7226 80.6294ZM97.4961 80.6294C97.6115 80.8034 97.0633 80.8904 95.996 80.8614L94.3228 80.8324L95.7652 80.6294C96.5729 80.5134 97.2364 80.3974 97.2653 80.3974C97.2941 80.3684 97.4095 80.4554 97.4961 80.6294ZM114.516 80.6294C114.632 80.8034 114.083 80.8904 113.016 80.8614L111.343 80.8324L112.785 80.6294C113.593 80.5134 114.257 80.3974 114.285 80.3974C114.314 80.3684 114.43 80.4554 114.516 80.6294ZM23.2999 80.8324C22.7806 80.8904 21.9152 80.8904 21.4248 80.8324C20.9055 80.7744 21.3094 80.7164 22.3479 80.7164C23.3864 80.7164 23.7903 80.7744 23.2999 80.8324ZM58.3498 80.8324C57.9171 80.8904 57.1382 80.8904 56.6189 80.8324C56.0997 80.7744 56.4458 80.7164 57.3978 80.7164C58.3498 80.7164 58.7825 80.7744 58.3498 80.8324ZM102.631 80.8324C102.112 80.8904 101.246 80.8904 100.756 80.8324C100.237 80.7744 100.64 80.7164 101.679 80.7164C102.717 80.7164 103.121 80.7744 102.631 80.8324Z" fill="url(#paint11_linear_305_1398)"/>
<path d="M15.4822 74.743L15.5399 76.4248L15.6264 74.917C15.7418 73.5542 15.7995 73.4092 16.5207 73.2932C17.2419 73.1773 17.213 73.1773 16.3764 73.1193L15.4245 73.0903L15.4822 74.743Z" fill="url(#paint12_linear_305_1398)"/>
<path d="M16.0014 75.004C16.0014 76.3089 16.0014 76.3379 16.7803 76.1349C17.8765 75.8739 18.3092 75.468 18.3092 74.6851C18.3092 74.0472 17.6746 73.6702 16.5207 73.6702C16.088 73.6702 16.0014 73.9312 16.0014 75.004Z" fill="url(#paint13_linear_305_1398)"/>
<path d="M15.511 78.3096C15.511 79.1795 15.5687 79.5564 15.6264 79.0925C15.6841 78.6576 15.6841 77.9616 15.6264 77.4977C15.5687 77.0628 15.511 77.4397 15.511 78.3096Z" fill="url(#paint14_linear_305_1398)"/>
<path d="M23.9634 75.2649C23.7037 76.0188 23.7614 76.1927 24.1076 75.6128C24.2807 75.3229 24.3672 75.0039 24.2807 74.9459C24.223 74.8589 24.0788 75.0039 23.9634 75.2649Z" fill="url(#paint15_linear_305_1398)"/>
<path d="M24.5403 75.3518C24.4249 75.6997 24.4249 76.2797 24.5403 76.6276C24.7134 77.2365 24.7134 77.2655 24.1942 76.8596C23.7037 76.4536 23.6749 76.4536 24.0499 76.9176C24.598 77.6425 25.6365 77.0915 25.3481 76.1927C24.973 74.9168 24.7423 74.6849 24.5403 75.3518Z" fill="url(#paint16_linear_305_1398)"/>
<path d="M43.8106 73.2064C43.724 73.4384 43.7817 73.8444 43.926 74.1343C44.1279 74.5113 44.1856 74.4243 44.1567 73.6994C44.1279 72.7135 44.0414 72.5975 43.8106 73.2064Z" fill="url(#paint17_linear_305_1398)"/>
<path d="M33.1081 73.2934C33.3677 73.3514 33.7716 73.3514 33.9735 73.2934C34.1466 73.2064 33.9447 73.1484 33.4542 73.1484C32.9927 73.1484 32.8196 73.2064 33.1081 73.2934Z" fill="url(#paint18_linear_305_1398)"/>
<path d="M33.0215 75.0042C33.0215 76.309 33.0504 76.338 33.8293 76.164C34.5793 75.9611 35.6178 75.0332 35.6178 74.5113C35.6178 74.1923 34.3485 73.6704 33.5696 73.6704C33.1081 73.6704 33.0215 73.8734 33.0215 75.0042Z" fill="url(#paint19_linear_305_1398)"/>
<path d="M41.8489 75.2649C41.5893 76.0188 41.647 76.1927 41.9932 75.6128C42.1663 75.3229 42.2528 75.0039 42.1663 74.9459C42.1086 74.8589 41.9643 75.0039 41.8489 75.2649Z" fill="url(#paint20_linear_305_1398)"/>
<path d="M42.4259 75.3522C42.3105 75.7001 42.3105 76.2801 42.4259 76.628L42.6278 77.2949L41.9355 76.715L41.2431 76.1351L41.7912 76.773C42.4836 77.6139 43.5509 77.2079 43.2336 76.1931C42.8586 74.9172 42.6278 74.6853 42.4259 75.3522Z" fill="url(#paint21_linear_305_1398)"/>
<path d="M37.3487 80.2524C37.3487 80.3684 36.9448 80.6584 36.4544 80.8904C35.9928 81.0933 35.6467 81.3253 35.7044 81.4123C35.7909 81.4703 36.339 81.2963 36.9448 80.9773C37.6083 80.6294 37.8968 80.3394 37.666 80.2235C37.4929 80.1075 37.3487 80.1075 37.3487 80.2524Z" fill="url(#paint22_linear_305_1398)"/>
<path d="M50.0994 76.4828L50.1571 79.9043L50.2436 76.6567C50.3301 73.9021 50.4167 73.4092 50.8494 73.2932C51.1956 73.2062 51.1667 73.1482 50.7052 73.1192C50.0417 73.0902 50.0417 73.1192 50.0994 76.4828Z" fill="url(#paint23_linear_305_1398)"/>
<path d="M50.6186 76.7148C50.6186 79.9624 50.734 80.1944 51.9745 79.3245C53.4168 78.3096 53.5322 74.4821 52.1475 73.9312C50.6475 73.3803 50.6186 73.4383 50.6186 76.7148Z" fill="url(#paint24_linear_305_1398)"/>
<path d="M54.7438 76.4246C54.7438 77.0626 54.8015 77.2945 54.8592 76.9176C54.9169 76.5696 54.9169 76.0477 54.8592 75.7577C54.7727 75.4968 54.715 75.7867 54.7438 76.4246Z" fill="url(#paint25_linear_305_1398)"/>
<path d="M54.2534 78.4546C54.138 78.8606 53.6476 79.4405 53.1284 79.7594C52.6379 80.0784 52.3783 80.3394 52.5803 80.3394C53.1284 80.3394 54.6573 78.7446 54.6573 78.1937C54.6573 77.4977 54.4553 77.6427 54.2534 78.4546Z" fill="url(#paint26_linear_305_1398)"/>
<path d="M57.8594 73.2062C57.6286 73.4672 57.5421 74.656 57.6286 76.7437L57.7151 79.9043L57.7728 76.6857C57.8017 74.685 57.9459 73.3802 58.1767 73.1482C58.3786 72.9453 58.4363 72.8003 58.3498 72.8003C58.2633 72.8003 58.0325 72.9742 57.8594 73.2062Z" fill="url(#paint27_linear_305_1398)"/>
<path d="M64.9271 73.2351C64.6674 73.989 64.7251 74.163 65.0713 73.583C65.2444 73.2931 65.3309 72.9741 65.2444 72.9161C65.1867 72.8291 65.0424 72.9741 64.9271 73.2351Z" fill="url(#paint28_linear_305_1398)"/>
<path d="M60.6288 76.5989C60.8307 76.8019 61.0615 76.8888 61.148 76.8019C61.2346 76.7149 61.0903 76.5409 60.8018 76.4539C60.398 76.2799 60.3691 76.3089 60.6288 76.5989Z" fill="url(#paint29_linear_305_1398)"/>
<path d="M61.8115 77.0627C62.0135 77.1497 62.2731 77.1207 62.3596 77.0337C62.475 76.9467 62.3019 76.8597 61.9846 76.8887C61.6673 76.8887 61.5807 76.9757 61.8115 77.0627Z" fill="url(#paint30_linear_305_1398)"/>
<path d="M62.9654 77.3528C63.1673 77.4397 63.427 77.4107 63.5135 77.3238C63.6289 77.2368 63.4558 77.1498 63.1385 77.1788C62.8212 77.1788 62.7346 77.2658 62.9654 77.3528Z" fill="url(#paint31_linear_305_1398)"/>
<path d="M59.7922 80.2522C59.9941 80.3392 60.2537 80.3102 60.3403 80.2232C60.4557 80.1362 60.2826 80.0492 59.9653 80.0782C59.6479 80.0782 59.5614 80.1652 59.7922 80.2522Z" fill="url(#paint32_linear_305_1398)"/>
<path d="M72.6005 73.3804C72.0813 74.2213 72.1678 74.4822 72.7159 73.7283C72.9756 73.3514 73.1198 73.0034 73.0621 72.9454C73.0044 72.8874 72.8025 73.0904 72.6005 73.3804Z" fill="url(#paint33_linear_305_1398)"/>
<path d="M68.8504 74.4529L68.8792 75.8447L68.9946 74.6269C69.11 73.496 69.1965 73.4091 70.0331 73.2931C70.9274 73.1771 70.9274 73.1771 69.8889 73.1481L68.7927 73.0901L68.8504 74.4529Z" fill="url(#paint34_linear_305_1398)"/>
<path d="M68.8504 78.0775L68.9081 79.9043L68.9946 78.2515C69.11 76.7147 69.1677 76.5988 69.8889 76.4828C70.6101 76.3668 70.5812 76.3668 69.7446 76.3088L68.7927 76.2798L68.8504 78.0775Z" fill="url(#paint35_linear_305_1398)"/>
<path d="M83.8511 73.3804C83.3319 74.2213 83.4184 74.4822 83.9665 73.7283C84.2262 73.3514 84.3704 73.0034 84.3127 72.9454C84.255 72.8874 84.0531 73.0904 83.8511 73.3804Z" fill="url(#paint36_linear_305_1398)"/>
<path d="M80.1009 74.4529L80.1298 75.8447L80.2452 74.6269C80.3606 73.496 80.4471 73.4091 81.2837 73.2931C82.178 73.1771 82.178 73.1771 81.1395 73.1481L80.0432 73.0901L80.1009 74.4529Z" fill="url(#paint37_linear_305_1398)"/>
<path d="M80.1009 78.0775L80.1586 79.9043L80.2452 78.2515C80.3606 76.7147 80.4183 76.5988 81.1395 76.4828C81.8606 76.3668 81.8318 76.3668 80.9952 76.3088L80.0432 76.2798L80.1009 78.0775Z" fill="url(#paint38_linear_305_1398)"/>
<path d="M90.89 73.2351C90.6303 73.989 90.688 74.163 91.0342 73.583C91.2073 73.2931 91.2938 72.9741 91.2073 72.9161C91.1496 72.8291 91.0054 72.9741 90.89 73.2351Z" fill="url(#paint39_linear_305_1398)"/>
<path d="M86.5917 76.5989C86.7936 76.8019 87.0244 76.8888 87.1109 76.8019C87.1975 76.7149 87.0532 76.5409 86.7647 76.4539C86.3609 76.2799 86.332 76.3089 86.5917 76.5989Z" fill="url(#paint40_linear_305_1398)"/>
<path d="M87.7744 77.0627C87.9763 77.1497 88.236 77.1207 88.3225 77.0337C88.4379 76.9467 88.2648 76.8597 87.9475 76.8887C87.6302 76.8887 87.5436 76.9757 87.7744 77.0627Z" fill="url(#paint41_linear_305_1398)"/>
<path d="M88.9283 77.3528C89.1302 77.4397 89.3899 77.4107 89.4764 77.3238C89.5918 77.2368 89.4187 77.1498 89.1014 77.1788C88.7841 77.1788 88.6975 77.2658 88.9283 77.3528Z" fill="url(#paint42_linear_305_1398)"/>
<path d="M85.7551 80.2522C85.957 80.3392 86.2166 80.3102 86.3032 80.2232C86.4186 80.1362 86.2455 80.0492 85.9282 80.0782C85.6108 80.0782 85.5243 80.1652 85.7551 80.2522Z" fill="url(#paint43_linear_305_1398)"/>
<path d="M93.3997 73.2932C93.1978 73.3512 93.0247 73.5542 93.0247 73.7281C93.0247 73.9311 93.1401 73.9311 93.3997 73.7281C93.5728 73.5832 94.0055 73.3802 94.3228 73.2932L94.8998 73.1482H94.3228C94.0055 73.1482 93.5728 73.2062 93.3997 73.2932Z" fill="url(#paint44_linear_305_1398)"/>
<path d="M96.2556 76.4828L96.3133 79.9043L96.3999 76.6567C96.4864 73.9021 96.573 73.4092 97.0057 73.2932C97.3518 73.2062 97.323 73.1482 96.8614 73.1192C96.1979 73.0902 96.1979 73.1192 96.2556 76.4828Z" fill="url(#paint45_linear_305_1398)"/>
<path d="M105.256 73.2064C105.17 73.4384 105.227 73.8444 105.371 74.1343C105.573 74.5113 105.631 74.4243 105.602 73.6994C105.573 72.7135 105.487 72.5975 105.256 73.2064Z" fill="url(#paint46_linear_305_1398)"/>
<path d="M103.439 74.8882C103.179 75.6131 103.208 75.903 103.554 76.28C104.16 76.9469 104.102 77.3238 103.496 76.8309C103.035 76.454 103.006 76.483 103.381 76.9179C103.669 77.3238 103.9 77.3528 104.304 77.1209C104.939 76.7729 104.939 76.8889 104.535 75.7001L104.189 74.7432L103.785 75.4391L103.381 76.135L103.583 75.4101C103.698 75.0042 103.843 74.5112 103.9 74.3083C103.987 74.1343 103.987 73.9603 103.9 73.9603C103.814 73.9603 103.612 74.3663 103.439 74.8882Z" fill="url(#paint47_linear_305_1398)"/>
<path d="M110.42 73.2932C110.218 73.3512 110.045 73.5542 110.045 73.7281C110.045 73.9311 110.16 73.9311 110.42 73.7281C110.593 73.5832 111.026 73.3802 111.343 73.2932L111.92 73.1482H111.343C111.026 73.1482 110.593 73.2062 110.42 73.2932Z" fill="url(#paint48_linear_305_1398)"/>
<path d="M113.276 76.4828L113.333 79.9043L113.42 76.6567C113.507 73.9021 113.593 73.4092 114.026 73.2932C114.372 73.2062 114.343 73.1482 113.882 73.1192C113.218 73.0902 113.218 73.1192 113.276 76.4828Z" fill="url(#paint49_linear_305_1398)"/>
<path d="M123.084 73.3804C122.565 74.2213 122.651 74.4822 123.199 73.7283C123.459 73.3514 123.603 73.0034 123.546 72.9454C123.488 72.8874 123.286 73.0904 123.084 73.3804Z" fill="url(#paint50_linear_305_1398)"/>
<path d="M119.334 74.4529L119.363 75.8447L119.478 74.6269C119.593 73.496 119.68 73.4091 120.517 73.2931C121.411 73.1771 121.411 73.1771 120.372 73.1481L119.276 73.0901L119.334 74.4529Z" fill="url(#paint51_linear_305_1398)"/>
<path d="M119.334 78.0775L119.391 79.9043L119.478 78.2515C119.593 76.7147 119.651 76.5988 120.372 76.4828C121.093 76.3668 121.065 76.3668 120.228 76.3088L119.276 76.2798L119.334 78.0775Z" fill="url(#paint52_linear_305_1398)"/>
<path d="M52.3495 92.2567C61.8115 95.8522 69.11 96.7221 76.8123 95.1563C79.9567 94.4894 85.8128 92.7786 87.3417 92.0827C88.236 91.6768 88.1494 91.6478 85.7839 91.7638C83.9088 91.8797 82.4087 92.1987 79.6394 93.0976C71.3601 95.7942 68.1868 95.7942 59.9076 93.0686C56.9074 92.0827 55.7535 91.8507 53.5034 91.7638L50.7628 91.6478L52.3495 92.2567Z" fill="url(#paint53_linear_305_1398)"/>
</g>
<defs>
<linearGradient id="paint0_linear_305_1398" x1="140.228" y1="31.2334" x2="-4.79186" y2="31.2334" gradientUnits="userSpaceOnUse">
<stop offset="0.0889102" stop-color="#496072"/>
<stop offset="1" stop-color="#567D9C"/>
</linearGradient>
<linearGradient id="paint1_linear_305_1398" x1="79.0741" y1="28.6102" x2="59.5139" y2="28.6102" gradientUnits="userSpaceOnUse">
<stop offset="0.0889102" stop-color="#496072"/>
<stop offset="1" stop-color="#567D9C"/>
</linearGradient>
<linearGradient id="paint2_linear_305_1398" x1="81.4638" y1="29.8608" x2="80.5446" y2="29.8608" gradientUnits="userSpaceOnUse">
<stop offset="0.0889102" stop-color="#496072"/>
<stop offset="1" stop-color="#567D9C"/>
</linearGradient>
<linearGradient id="paint3_linear_305_1398" x1="58.7225" y1="30.1761" x2="58.0772" y2="30.1761" gradientUnits="userSpaceOnUse">
<stop offset="0.0889102" stop-color="#496072"/>
<stop offset="1" stop-color="#567D9C"/>
</linearGradient>
<linearGradient id="paint4_linear_305_1398" x1="77.5034" y1="34.4966" x2="61.7155" y2="34.4966" gradientUnits="userSpaceOnUse">
<stop offset="0.0889102" stop-color="#496072"/>
<stop offset="1" stop-color="#567D9C"/>
</linearGradient>
<linearGradient id="paint5_linear_305_1398" x1="85.4358" y1="33.8377" x2="83.1054" y2="33.8377" gradientUnits="userSpaceOnUse">
<stop offset="0.0889102" stop-color="#496072"/>
<stop offset="1" stop-color="#567D9C"/>
</linearGradient>
<linearGradient id="paint6_linear_305_1398" x1="56.42" y1="34.2355" x2="55.213" y2="34.2355" gradientUnits="userSpaceOnUse">
<stop offset="0.0889102" stop-color="#496072"/>
<stop offset="1" stop-color="#567D9C"/>
</linearGradient>
<linearGradient id="paint7_linear_305_1398" x1="65.2778" y1="39.7447" x2="64.6895" y2="39.7447" gradientUnits="userSpaceOnUse">
<stop offset="0.0889102" stop-color="#496072"/>
<stop offset="1" stop-color="#567D9C"/>
</linearGradient>
<linearGradient id="paint8_linear_305_1398" x1="67.0392" y1="45.2139" x2="66.2489" y2="45.2139" gradientUnits="userSpaceOnUse">
<stop offset="0.0889102" stop-color="#496072"/>
<stop offset="1" stop-color="#567D9C"/>
</linearGradient>
<linearGradient id="paint9_linear_305_1398" x1="8.18485" y1="66.3639" x2="-0.563701" y2="66.3639" gradientUnits="userSpaceOnUse">
<stop offset="0.0889102" stop-color="#496072"/>
<stop offset="1" stop-color="#567D9C"/>
</linearGradient>
<linearGradient id="paint10_linear_305_1398" x1="138.792" y1="66.2332" x2="130.215" y2="66.2332" gradientUnits="userSpaceOnUse">
<stop offset="0.0889102" stop-color="#496072"/>
<stop offset="1" stop-color="#567D9C"/>
</linearGradient>
<linearGradient id="paint11_linear_305_1398" x1="146.544" y1="78.6851" x2="-11.5624" y2="78.6851" gradientUnits="userSpaceOnUse">
<stop offset="0.0889102" stop-color="#496072"/>
<stop offset="1" stop-color="#567D9C"/>
</linearGradient>
<linearGradient id="paint12_linear_305_1398" x1="17.2062" y1="74.7575" x2="15.2052" y2="74.7575" gradientUnits="userSpaceOnUse">
<stop offset="0.0889102" stop-color="#496072"/>
<stop offset="1" stop-color="#567D9C"/>
</linearGradient>
<linearGradient id="paint13_linear_305_1398" x1="18.5553" y1="74.9491" x2="15.6872" y2="74.9491" gradientUnits="userSpaceOnUse">
<stop offset="0.0889102" stop-color="#496072"/>
<stop offset="1" stop-color="#567D9C"/>
</linearGradient>
<linearGradient id="paint14_linear_305_1398" x1="15.6866" y1="78.3044" x2="15.4894" y2="78.3044" gradientUnits="userSpaceOnUse">
<stop offset="0.0889102" stop-color="#496072"/>
<stop offset="1" stop-color="#567D9C"/>
</linearGradient>
<linearGradient id="paint15_linear_305_1398" x1="24.3693" y1="75.4393" x2="23.7322" y2="75.4393" gradientUnits="userSpaceOnUse">
<stop offset="0.0889102" stop-color="#496072"/>
<stop offset="1" stop-color="#567D9C"/>
</linearGradient>
<linearGradient id="paint16_linear_305_1398" x1="25.5687" y1="76.1199" x2="23.5759" y2="76.1199" gradientUnits="userSpaceOnUse">
<stop offset="0.0889102" stop-color="#496072"/>
<stop offset="1" stop-color="#567D9C"/>
</linearGradient>
<linearGradient id="paint17_linear_305_1398" x1="44.2057" y1="73.5932" x2="43.7163" y2="73.5932" gradientUnits="userSpaceOnUse">
<stop offset="0.0889102" stop-color="#496072"/>
<stop offset="1" stop-color="#567D9C"/>
</linearGradient>
<linearGradient id="paint18_linear_305_1398" x1="34.1484" y1="73.2427" x2="32.8217" y2="73.2427" gradientUnits="userSpaceOnUse">
<stop offset="0.0889102" stop-color="#496072"/>
<stop offset="1" stop-color="#567D9C"/>
</linearGradient>
<linearGradient id="paint19_linear_305_1398" x1="35.8947" y1="74.9551" x2="32.668" y2="74.9551" gradientUnits="userSpaceOnUse">
<stop offset="0.0889102" stop-color="#496072"/>
<stop offset="1" stop-color="#567D9C"/>
</linearGradient>
<linearGradient id="paint20_linear_305_1398" x1="42.2549" y1="75.4393" x2="41.6178" y2="75.4393" gradientUnits="userSpaceOnUse">
<stop offset="0.0889102" stop-color="#496072"/>
<stop offset="1" stop-color="#567D9C"/>
</linearGradient>
<linearGradient id="paint21_linear_305_1398" x1="43.5095" y1="76.1415" x2="40.9643" y2="76.1415" gradientUnits="userSpaceOnUse">
<stop offset="0.0889102" stop-color="#496072"/>
<stop offset="1" stop-color="#567D9C"/>
</linearGradient>
<linearGradient id="paint22_linear_305_1398" x1="37.9628" y1="80.7816" x2="35.4194" y2="80.7816" gradientUnits="userSpaceOnUse">
<stop offset="0.0889102" stop-color="#496072"/>
<stop offset="1" stop-color="#567D9C"/>
</linearGradient>
<linearGradient id="paint23_linear_305_1398" x1="51.1911" y1="76.5097" x2="49.9389" y2="76.5097" gradientUnits="userSpaceOnUse">
<stop offset="0.0889102" stop-color="#496072"/>
<stop offset="1" stop-color="#567D9C"/>
</linearGradient>
<linearGradient id="paint24_linear_305_1398" x1="53.391" y1="76.7139" x2="50.2775" y2="76.7139" gradientUnits="userSpaceOnUse">
<stop offset="0.0889102" stop-color="#496072"/>
<stop offset="1" stop-color="#567D9C"/>
</linearGradient>
<linearGradient id="paint25_linear_305_1398" x1="54.9202" y1="76.3806" x2="54.7137" y2="76.3806" gradientUnits="userSpaceOnUse">
<stop offset="0.0889102" stop-color="#496072"/>
<stop offset="1" stop-color="#567D9C"/>
</linearGradient>
<linearGradient id="paint26_linear_305_1398" x1="54.8861" y1="79.0439" x2="52.2191" y2="79.0439" gradientUnits="userSpaceOnUse">
<stop offset="0.0889102" stop-color="#496072"/>
<stop offset="1" stop-color="#567D9C"/>
</linearGradient>
<linearGradient id="paint27_linear_305_1398" x1="58.4733" y1="76.3523" x2="57.4877" y2="76.3523" gradientUnits="userSpaceOnUse">
<stop offset="0.0889102" stop-color="#496072"/>
<stop offset="1" stop-color="#567D9C"/>
</linearGradient>
<linearGradient id="paint28_linear_305_1398" x1="65.333" y1="73.4095" x2="64.6959" y2="73.4095" gradientUnits="userSpaceOnUse">
<stop offset="0.0889102" stop-color="#496072"/>
<stop offset="1" stop-color="#567D9C"/>
</linearGradient>
<linearGradient id="paint29_linear_305_1398" x1="61.2489" y1="76.5909" x2="60.3637" y2="76.5909" gradientUnits="userSpaceOnUse">
<stop offset="0.0889102" stop-color="#496072"/>
<stop offset="1" stop-color="#567D9C"/>
</linearGradient>
<linearGradient id="paint30_linear_305_1398" x1="62.4717" y1="76.9991" x2="61.5839" y2="76.9991" gradientUnits="userSpaceOnUse">
<stop offset="0.0889102" stop-color="#496072"/>
<stop offset="1" stop-color="#567D9C"/>
</linearGradient>
<linearGradient id="paint31_linear_305_1398" x1="63.6256" y1="77.2892" x2="62.7378" y2="77.2892" gradientUnits="userSpaceOnUse">
<stop offset="0.0889102" stop-color="#496072"/>
<stop offset="1" stop-color="#567D9C"/>
</linearGradient>
<linearGradient id="paint32_linear_305_1398" x1="60.4523" y1="80.1886" x2="59.5645" y2="80.1886" gradientUnits="userSpaceOnUse">
<stop offset="0.0889102" stop-color="#496072"/>
<stop offset="1" stop-color="#567D9C"/>
</linearGradient>
<linearGradient id="paint33_linear_305_1398" x1="73.1622" y1="73.5547" x2="72.1427" y2="73.5547" gradientUnits="userSpaceOnUse">
<stop offset="0.0889102" stop-color="#496072"/>
<stop offset="1" stop-color="#567D9C"/>
</linearGradient>
<linearGradient id="paint34_linear_305_1398" x1="70.8888" y1="74.4674" x2="68.5347" y2="74.4674" gradientUnits="userSpaceOnUse">
<stop offset="0.0889102" stop-color="#496072"/>
<stop offset="1" stop-color="#567D9C"/>
</linearGradient>
<linearGradient id="paint35_linear_305_1398" x1="70.5744" y1="78.092" x2="68.5734" y2="78.092" gradientUnits="userSpaceOnUse">
<stop offset="0.0889102" stop-color="#496072"/>
<stop offset="1" stop-color="#567D9C"/>
</linearGradient>
<linearGradient id="paint36_linear_305_1398" x1="84.4128" y1="73.5547" x2="83.3933" y2="73.5547" gradientUnits="userSpaceOnUse">
<stop offset="0.0889102" stop-color="#496072"/>
<stop offset="1" stop-color="#567D9C"/>
</linearGradient>
<linearGradient id="paint37_linear_305_1398" x1="82.1393" y1="74.4674" x2="79.7853" y2="74.4674" gradientUnits="userSpaceOnUse">
<stop offset="0.0889102" stop-color="#496072"/>
<stop offset="1" stop-color="#567D9C"/>
</linearGradient>
<linearGradient id="paint38_linear_305_1398" x1="81.825" y1="78.092" x2="79.824" y2="78.092" gradientUnits="userSpaceOnUse">
<stop offset="0.0889102" stop-color="#496072"/>
<stop offset="1" stop-color="#567D9C"/>
</linearGradient>
<linearGradient id="paint39_linear_305_1398" x1="91.2959" y1="73.4095" x2="90.6588" y2="73.4095" gradientUnits="userSpaceOnUse">
<stop offset="0.0889102" stop-color="#496072"/>
<stop offset="1" stop-color="#567D9C"/>
</linearGradient>
<linearGradient id="paint40_linear_305_1398" x1="87.2118" y1="76.5909" x2="86.3266" y2="76.5909" gradientUnits="userSpaceOnUse">
<stop offset="0.0889102" stop-color="#496072"/>
<stop offset="1" stop-color="#567D9C"/>
</linearGradient>
<linearGradient id="paint41_linear_305_1398" x1="88.4346" y1="76.9991" x2="87.5467" y2="76.9991" gradientUnits="userSpaceOnUse">
<stop offset="0.0889102" stop-color="#496072"/>
<stop offset="1" stop-color="#567D9C"/>
</linearGradient>
<linearGradient id="paint42_linear_305_1398" x1="89.5885" y1="77.2892" x2="88.7007" y2="77.2892" gradientUnits="userSpaceOnUse">
<stop offset="0.0889102" stop-color="#496072"/>
<stop offset="1" stop-color="#567D9C"/>
</linearGradient>
<linearGradient id="paint43_linear_305_1398" x1="86.4152" y1="80.1886" x2="85.5274" y2="80.1886" gradientUnits="userSpaceOnUse">
<stop offset="0.0889102" stop-color="#496072"/>
<stop offset="1" stop-color="#567D9C"/>
</linearGradient>
<linearGradient id="paint44_linear_305_1398" x1="95.0997" y1="73.5143" x2="92.7694" y2="73.5143" gradientUnits="userSpaceOnUse">
<stop offset="0.0889102" stop-color="#496072"/>
<stop offset="1" stop-color="#567D9C"/>
</linearGradient>
<linearGradient id="paint45_linear_305_1398" x1="97.3474" y1="76.5097" x2="96.0951" y2="76.5097" gradientUnits="userSpaceOnUse">
<stop offset="0.0889102" stop-color="#496072"/>
<stop offset="1" stop-color="#567D9C"/>
</linearGradient>
<linearGradient id="paint46_linear_305_1398" x1="105.651" y1="73.5932" x2="105.162" y2="73.5932" gradientUnits="userSpaceOnUse">
<stop offset="0.0889102" stop-color="#496072"/>
<stop offset="1" stop-color="#567D9C"/>
</linearGradient>
<linearGradient id="paint47_linear_305_1398" x1="104.994" y1="75.6135" x2="102.892" y2="75.6135" gradientUnits="userSpaceOnUse">
<stop offset="0.0889102" stop-color="#496072"/>
<stop offset="1" stop-color="#567D9C"/>
</linearGradient>
<linearGradient id="paint48_linear_305_1398" x1="112.12" y1="73.5143" x2="109.789" y2="73.5143" gradientUnits="userSpaceOnUse">
<stop offset="0.0889102" stop-color="#496072"/>
<stop offset="1" stop-color="#567D9C"/>
</linearGradient>
<linearGradient id="paint49_linear_305_1398" x1="114.367" y1="76.5097" x2="113.115" y2="76.5097" gradientUnits="userSpaceOnUse">
<stop offset="0.0889102" stop-color="#496072"/>
<stop offset="1" stop-color="#567D9C"/>
</linearGradient>
<linearGradient id="paint50_linear_305_1398" x1="123.646" y1="73.5547" x2="122.626" y2="73.5547" gradientUnits="userSpaceOnUse">
<stop offset="0.0889102" stop-color="#496072"/>
<stop offset="1" stop-color="#567D9C"/>
</linearGradient>
<linearGradient id="paint51_linear_305_1398" x1="121.372" y1="74.4674" x2="119.018" y2="74.4674" gradientUnits="userSpaceOnUse">
<stop offset="0.0889102" stop-color="#496072"/>
<stop offset="1" stop-color="#567D9C"/>
</linearGradient>
<linearGradient id="paint52_linear_305_1398" x1="121.058" y1="78.092" x2="119.057" y2="78.092" gradientUnits="userSpaceOnUse">
<stop offset="0.0889102" stop-color="#496072"/>
<stop offset="1" stop-color="#567D9C"/>
</linearGradient>
<linearGradient id="paint53_linear_305_1398" x1="91.822" y1="93.7748" x2="45.7106" y2="93.7748" gradientUnits="userSpaceOnUse">
<stop offset="0.0889102" stop-color="#496072"/>
<stop offset="1" stop-color="#567D9C"/>
</linearGradient>
<clipPath id="clip0_305_1398">
<rect width="138" height="96" fill="white"/>
</clipPath>
</defs>
</svg>
