<svg width="30" height="30" fill="none" xmlns="http://www.w3.org/2000/svg"><path d="M29.992 14.97c0 1.055-.781 1.882-1.667 1.882H26.66l.036 9.386c0 .159-.01.317-.026.475v.943c0 1.295-.932 2.344-2.084 2.344h-.833c-.057 0-.115 0-.172-.006-.073.006-.146.006-.219.006H20.42c-1.152 0-2.084-1.049-2.084-2.344V22.5c0-1.037-.745-1.875-1.667-1.875h-3.333c-.923 0-1.667.838-1.667 1.875v5.156c0 1.295-.933 2.344-2.084 2.344H6.672c-.078 0-.156-.006-.234-.012a1.956 1.956 0 01-.187.012h-.834c-1.151 0-2.083-1.049-2.083-2.344v-6.562c0-.053 0-.112.005-.164v-4.078H1.667C.729 16.852 0 16.032 0 14.97c0-.528.156-.996.52-1.406L13.877.469c.365-.41.782-.469 1.146-.469.365 0 .781.117 1.094.41L29.42 13.565c.417.41.625.878.573 1.406z" fill="url(#paint0_linear_71_801)"/><defs><linearGradient id="paint0_linear_71_801" x1="33.199" y1="15" x2="-4.085" y2="15" gradientUnits="userSpaceOnUse"><stop offset=".089" stop-color="#496072"/><stop offset="1" stop-color="#567D9C"/></linearGradient></defs></svg>