<svg width="50" height="40" fill="none" xmlns="http://www.w3.org/2000/svg"><g filter="url(#filter0_d_45_129)"><path d="M8 6.75c-.688 0-1.25.563-1.25 1.25v1.727l13.477 11.062a4.37 4.37 0 005.554 0L39.25 9.727V8c0-.688-.563-1.25-1.25-1.25H8zm-1.25 7.828V28c0 .688.563 1.25 1.25 1.25h30c.688 0 1.25-.563 1.25-1.25V14.578l-11.094 9.11c-3 2.46-7.32 2.46-10.312 0L6.75 14.578zM3 8c0-2.758 2.242-5 5-5h30c2.758 0 5 2.242 5 5v20c0 2.758-2.242 5-5 5H8c-2.758 0-5-2.242-5-5V8z" fill="#C5D8E6"/></g><defs><filter id="filter0_d_45_129" x="0" y="0" width="50" height="40" filterUnits="userSpaceOnUse" color-interpolation-filters="sRGB"><feFlood flood-opacity="0" result="BackgroundImageFix"/><feColorMatrix in="SourceAlpha" values="0 0 0 0 0 0 0 0 0 0 0 0 0 0 0 0 0 0 127 0" result="hardAlpha"/><feOffset dx="2" dy="2"/><feGaussianBlur stdDeviation="2.5"/><feComposite in2="hardAlpha" operator="out"/><feColorMatrix values="0 0 0 0 0.286275 0 0 0 0 0.376471 0 0 0 0 0.447059 0 0 0 0.6 0"/><feBlend in2="BackgroundImageFix" result="effect1_dropShadow_45_129"/><feBlend in="SourceGraphic" in2="effect1_dropShadow_45_129" result="shape"/></filter></defs></svg>