<svg width="50" height="40" fill="none" xmlns="http://www.w3.org/2000/svg"><g filter="url(#filter0_d_71_711)"><path d="M6.75 3A3.751 3.751 0 004.5 9.75l17 12.75c.89.664 2.11.664 3 0l17-12.75A3.751 3.751 0 0039.25 3H6.75zM3 11.75V28c0 2.758 2.242 5 5 5h30c2.758 0 5-2.242 5-5V11.75L26 24.5a4.992 4.992 0 01-6 0L3 11.75z" fill="url(#paint0_linear_71_711)"/></g><defs><linearGradient id="paint0_linear_71_711" x1="47.265" y1="18" x2="-2.447" y2="18" gradientUnits="userSpaceOnUse"><stop offset=".089" stop-color="#496072"/><stop offset="1" stop-color="#567D9C"/></linearGradient><filter id="filter0_d_71_711" x="0" y="0" width="50" height="40" filterUnits="userSpaceOnUse" color-interpolation-filters="sRGB"><feFlood flood-opacity="0" result="BackgroundImageFix"/><feColorMatrix in="SourceAlpha" values="0 0 0 0 0 0 0 0 0 0 0 0 0 0 0 0 0 0 127 0" result="hardAlpha"/><feOffset dx="2" dy="2"/><feGaussianBlur stdDeviation="2.5"/><feComposite in2="hardAlpha" operator="out"/><feColorMatrix values="0 0 0 0 0.286275 0 0 0 0 0.376471 0 0 0 0 0.447059 0 0 0 0.6 0"/><feBlend in2="BackgroundImageFix" result="effect1_dropShadow_71_711"/><feBlend in="SourceGraphic" in2="effect1_dropShadow_71_711" result="shape"/></filter></defs></svg>