<svg width="40" height="40" fill="none" xmlns="http://www.w3.org/2000/svg"><g filter="url(#filter0_d_45_131)"><path d="M12.662 4.443a2.336 2.336 0 00-2.778-1.36L4.728 4.49A2.35 2.35 0 003 6.75C3 21.247 14.753 33 29.249 33a2.35 2.35 0 002.262-1.728l1.406-5.156a2.336 2.336 0 00-1.36-2.778l-5.624-2.343a2.336 2.336 0 00-2.713.68l-2.367 2.888a19.802 19.802 0 01-9.416-9.416l2.889-2.361a2.338 2.338 0 00.68-2.713L12.661 4.45v-.006z" fill="#C5D8E6"/></g><defs><filter id="filter0_d_45_131" x="0" y="0" width="40" height="40" filterUnits="userSpaceOnUse" color-interpolation-filters="sRGB"><feFlood flood-opacity="0" result="BackgroundImageFix"/><feColorMatrix in="SourceAlpha" values="0 0 0 0 0 0 0 0 0 0 0 0 0 0 0 0 0 0 127 0" result="hardAlpha"/><feOffset dx="2" dy="2"/><feGaussianBlur stdDeviation="2.5"/><feComposite in2="hardAlpha" operator="out"/><feColorMatrix values="0 0 0 0 0.286275 0 0 0 0 0.376471 0 0 0 0 0.447059 0 0 0 0.6 0"/><feBlend in2="BackgroundImageFix" result="effect1_dropShadow_45_131"/><feBlend in="SourceGraphic" in2="effect1_dropShadow_45_131" result="shape"/></filter></defs></svg>