<svg width="30" height="30" viewBox="0 0 30 30" fill="none" xmlns="http://www.w3.org/2000/svg">
<path d="M15 0C6.71571 0 0 6.71571 0 15C0 23.2843 6.71571 30 15 30C23.2843 30 30 23.2843 30 15C30 6.71571 23.2843 0 15 0ZM21.9527 10.2012C21.727 12.5731 20.7503 18.3289 20.2531 20.9855C20.0429 22.1095 19.6288 22.4865 19.2281 22.5233C18.3571 22.6035 17.6955 21.9477 16.8518 21.3946C15.5317 20.5292 14.7858 19.9905 13.5043 19.146C12.0233 18.1701 12.9834 17.6339 13.8274 16.7569C14.0483 16.5275 17.8863 13.0365 17.9606 12.7198C17.9698 12.6802 17.9787 12.5323 17.8908 12.4547C17.8028 12.377 17.6736 12.4033 17.5802 12.4244C17.4478 12.4545 15.3388 13.8485 11.2531 16.6064C10.6545 17.0174 10.1123 17.2177 9.62643 17.2072C9.09085 17.1957 8.06063 16.9045 7.29472 16.6554C6.35534 16.3501 5.60873 16.1887 5.67375 15.6701C5.70762 15.3999 6.0796 15.1237 6.78968 14.8415C11.1625 12.9363 14.0784 11.6803 15.5373 11.0733C19.703 9.34064 20.5686 9.03968 21.1328 9.02964C21.2569 9.02758 21.5343 9.05831 21.714 9.20413C21.8335 9.30801 21.9097 9.45298 21.9275 9.61034C21.958 9.80574 21.9664 10.0039 21.9527 10.2012Z" fill="url(#paint0_linear_71_717)"/>
<defs>
<linearGradient id="paint0_linear_71_717" x1="33.1988" y1="15" x2="-4.08501" y2="15" gradientUnits="userSpaceOnUse">
<stop offset="0.0889102" stop-color="#496072"/>
<stop offset="1" stop-color="#567D9C"/>
</linearGradient>
</defs>
</svg>
