<svg width="40" height="40" fill="none" xmlns="http://www.w3.org/2000/svg"><g filter="url(#filter0_d_71_717)"><path d="M18 3C9.716 3 3 9.716 3 18c0 8.284 6.716 15 15 15 8.284 0 15-6.716 15-15 0-8.284-6.716-15-15-15zm6.953 10.201c-.226 2.372-1.203 8.128-1.7 10.784-.21 1.125-.624 1.502-1.025 1.538-.87.08-1.533-.575-2.376-1.128-1.32-.866-2.066-1.404-3.348-2.249-1.48-.976-.52-1.512.323-2.39.221-.229 4.06-3.72 4.134-4.036.009-.04.018-.188-.07-.265-.088-.078-.217-.052-.31-.03-.133.03-2.242 1.424-6.328 4.181-.598.411-1.14.612-1.627.601-.535-.011-1.565-.303-2.331-.552-.94-.305-1.686-.466-1.621-.985.034-.27.406-.546 1.116-.829 4.373-1.905 7.288-3.16 8.747-3.768 4.166-1.732 5.032-2.033 5.596-2.043.124-.002.401.028.581.174.12.104.196.249.213.406a2.6 2.6 0 01.026.591z" fill="url(#paint0_linear_71_717)"/></g><defs><linearGradient id="paint0_linear_71_717" x1="36.199" y1="18" x2="-1.085" y2="18" gradientUnits="userSpaceOnUse"><stop offset=".089" stop-color="#496072"/><stop offset="1" stop-color="#567D9C"/></linearGradient><filter id="filter0_d_71_717" x="0" y="0" width="40" height="40" filterUnits="userSpaceOnUse" color-interpolation-filters="sRGB"><feFlood flood-opacity="0" result="BackgroundImageFix"/><feColorMatrix in="SourceAlpha" values="0 0 0 0 0 0 0 0 0 0 0 0 0 0 0 0 0 0 127 0" result="hardAlpha"/><feOffset dx="2" dy="2"/><feGaussianBlur stdDeviation="2.5"/><feComposite in2="hardAlpha" operator="out"/><feColorMatrix values="0 0 0 0 0.286275 0 0 0 0 0.376471 0 0 0 0 0.447059 0 0 0 0.6 0"/><feBlend in2="BackgroundImageFix" result="effect1_dropShadow_71_717"/><feBlend in="SourceGraphic" in2="effect1_dropShadow_71_717" result="shape"/></filter></defs></svg>