<svg width="40" height="40" fill="none" xmlns="http://www.w3.org/2000/svg"><g filter="url(#filter0_d_45_137)"><path d="M28.507 7.36A14.754 14.754 0 0017.993 3C9.797 3 3.127 9.67 3.127 17.866c0 2.618.683 5.176 1.982 7.433L3 33l7.882-2.07a14.82 14.82 0 007.105 1.809h.006c8.19 0 15.007-6.67 15.007-14.866 0-3.971-1.688-7.701-4.493-10.514zM17.993 30.233c-2.223 0-4.4-.596-6.294-1.72l-.449-.268-4.674 1.225 1.245-4.56-.294-.469a12.316 12.316 0 01-1.889-6.576C5.638 11.055 11.183 5.51 18 5.51c3.301 0 6.402 1.286 8.732 3.623 2.33 2.337 3.764 5.437 3.757 8.739 0 6.817-5.685 12.361-12.496 12.361zm6.777-9.254c-.368-.188-2.196-1.085-2.538-1.205-.341-.128-.59-.188-.837.187-.248.375-.957 1.205-1.178 1.46-.215.248-.436.281-.804.094-2.183-1.092-3.616-1.949-5.056-4.42-.382-.656.382-.61 1.092-2.029.12-.248.06-.462-.034-.65-.094-.187-.837-2.015-1.145-2.758-.301-.724-.61-.623-.837-.637-.214-.013-.462-.013-.71-.013-.248 0-.65.094-.99.462-.342.375-1.3 1.272-1.3 3.1 0 1.829 1.333 3.596 1.513 3.844.188.248 2.619 3.998 6.349 5.612 2.357 1.018 3.28 1.105 4.46.93.716-.107 2.196-.897 2.504-1.767.308-.87.308-1.614.214-1.768-.087-.168-.335-.261-.703-.442z" fill="#C5D8E6"/></g><defs><filter id="filter0_d_45_137" x="0" y="0" width="40" height="40" filterUnits="userSpaceOnUse" color-interpolation-filters="sRGB"><feFlood flood-opacity="0" result="BackgroundImageFix"/><feColorMatrix in="SourceAlpha" values="0 0 0 0 0 0 0 0 0 0 0 0 0 0 0 0 0 0 127 0" result="hardAlpha"/><feOffset dx="2" dy="2"/><feGaussianBlur stdDeviation="2.5"/><feComposite in2="hardAlpha" operator="out"/><feColorMatrix values="0 0 0 0 0.286275 0 0 0 0 0.376471 0 0 0 0 0.447059 0 0 0 0.6 0"/><feBlend in2="BackgroundImageFix" result="effect1_dropShadow_45_137"/><feBlend in="SourceGraphic" in2="effect1_dropShadow_45_137" result="shape"/></filter></defs></svg>